<mxfile host="app.diagrams.net" modified="2024-01-26T14:14:50.425Z" agent="Mozilla/5.0 (Windows NT 10.0; Win64; x64; rv:121.0) Gecko/20100101 Firefox/121.0" etag="QBj5yJnYsY3lktLY7d9n" version="23.0.2" type="device">
  <diagram id="R2lEEEUBdFMjLlhIrx00" name="Page-1">
    <mxGraphModel dx="2678" dy="815" grid="1" gridSize="10" guides="1" tooltips="1" connect="1" arrows="1" fold="1" page="1" pageScale="1" pageWidth="1169" pageHeight="827" math="0" shadow="0" extFonts="Permanent Marker^https://fonts.googleapis.com/css?family=Permanent+Marker">
      <root>
        <mxCell id="0" />
        <mxCell id="1" parent="0" />
        <mxCell id="ClxRo2CyHsPCfO-SJl8--216" style="edgeStyle=orthogonalEdgeStyle;rounded=0;orthogonalLoop=1;jettySize=auto;html=1;endArrow=ERone;endFill=0;startArrow=ERoneToMany;startFill=0;fontFamily=Garamond;fontSize=14;" edge="1" parent="1" source="ClxRo2CyHsPCfO-SJl8--1" target="ClxRo2CyHsPCfO-SJl8--53">
          <mxGeometry relative="1" as="geometry" />
        </mxCell>
        <mxCell id="ClxRo2CyHsPCfO-SJl8--1" value="screen" style="shape=table;startSize=30;container=1;collapsible=1;childLayout=tableLayout;fixedRows=1;rowLines=0;fontStyle=1;align=center;resizeLast=1;html=1;fontFamily=Garamond;fontSize=14;" vertex="1" parent="1">
          <mxGeometry x="-1110.08" y="550" width="240" height="200" as="geometry" />
        </mxCell>
        <mxCell id="ClxRo2CyHsPCfO-SJl8--2" value="" style="shape=tableRow;horizontal=0;startSize=0;swimlaneHead=0;swimlaneBody=0;fillColor=none;collapsible=0;dropTarget=0;points=[[0,0.5],[1,0.5]];portConstraint=eastwest;top=0;left=0;right=0;bottom=1;fontFamily=Garamond;fontSize=14;" vertex="1" parent="ClxRo2CyHsPCfO-SJl8--1">
          <mxGeometry y="30" width="240" height="30" as="geometry" />
        </mxCell>
        <mxCell id="ClxRo2CyHsPCfO-SJl8--3" value="PK" style="shape=partialRectangle;connectable=0;fillColor=none;top=0;left=0;bottom=0;right=0;fontStyle=1;overflow=hidden;whiteSpace=wrap;html=1;fontFamily=Garamond;fontSize=14;" vertex="1" parent="ClxRo2CyHsPCfO-SJl8--2">
          <mxGeometry width="30" height="30" as="geometry">
            <mxRectangle width="30" height="30" as="alternateBounds" />
          </mxGeometry>
        </mxCell>
        <mxCell id="ClxRo2CyHsPCfO-SJl8--4" value="id " style="shape=partialRectangle;connectable=0;fillColor=none;top=0;left=0;bottom=0;right=0;align=left;spacingLeft=6;fontStyle=5;overflow=hidden;whiteSpace=wrap;html=1;fontFamily=Garamond;fontSize=14;" vertex="1" parent="ClxRo2CyHsPCfO-SJl8--2">
          <mxGeometry x="30" width="130" height="30" as="geometry">
            <mxRectangle width="130" height="30" as="alternateBounds" />
          </mxGeometry>
        </mxCell>
        <mxCell id="ClxRo2CyHsPCfO-SJl8--142" value="int" style="shape=partialRectangle;connectable=0;fillColor=none;top=0;left=0;bottom=0;right=0;align=left;spacingLeft=6;fontStyle=5;overflow=hidden;whiteSpace=wrap;html=1;fontFamily=Garamond;fontSize=14;" vertex="1" parent="ClxRo2CyHsPCfO-SJl8--2">
          <mxGeometry x="160" width="80" height="30" as="geometry">
            <mxRectangle width="80" height="30" as="alternateBounds" />
          </mxGeometry>
        </mxCell>
        <mxCell id="ClxRo2CyHsPCfO-SJl8--5" value="" style="shape=tableRow;horizontal=0;startSize=0;swimlaneHead=0;swimlaneBody=0;fillColor=none;collapsible=0;dropTarget=0;points=[[0,0.5],[1,0.5]];portConstraint=eastwest;top=0;left=0;right=0;bottom=0;fontFamily=Garamond;fontSize=14;" vertex="1" parent="ClxRo2CyHsPCfO-SJl8--1">
          <mxGeometry y="60" width="240" height="30" as="geometry" />
        </mxCell>
        <mxCell id="ClxRo2CyHsPCfO-SJl8--6" value="" style="shape=partialRectangle;connectable=0;fillColor=none;top=0;left=0;bottom=0;right=0;editable=1;overflow=hidden;whiteSpace=wrap;html=1;fontFamily=Garamond;fontSize=14;" vertex="1" parent="ClxRo2CyHsPCfO-SJl8--5">
          <mxGeometry width="30" height="30" as="geometry">
            <mxRectangle width="30" height="30" as="alternateBounds" />
          </mxGeometry>
        </mxCell>
        <mxCell id="ClxRo2CyHsPCfO-SJl8--7" value="createdAt " style="shape=partialRectangle;connectable=0;fillColor=none;top=0;left=0;bottom=0;right=0;align=left;spacingLeft=6;overflow=hidden;whiteSpace=wrap;html=1;fontFamily=Garamond;fontSize=14;" vertex="1" parent="ClxRo2CyHsPCfO-SJl8--5">
          <mxGeometry x="30" width="130" height="30" as="geometry">
            <mxRectangle width="130" height="30" as="alternateBounds" />
          </mxGeometry>
        </mxCell>
        <mxCell id="ClxRo2CyHsPCfO-SJl8--143" value="DateTime" style="shape=partialRectangle;connectable=0;fillColor=none;top=0;left=0;bottom=0;right=0;align=left;spacingLeft=6;overflow=hidden;whiteSpace=wrap;html=1;fontFamily=Garamond;fontSize=14;" vertex="1" parent="ClxRo2CyHsPCfO-SJl8--5">
          <mxGeometry x="160" width="80" height="30" as="geometry">
            <mxRectangle width="80" height="30" as="alternateBounds" />
          </mxGeometry>
        </mxCell>
        <mxCell id="ClxRo2CyHsPCfO-SJl8--8" value="" style="shape=tableRow;horizontal=0;startSize=0;swimlaneHead=0;swimlaneBody=0;fillColor=none;collapsible=0;dropTarget=0;points=[[0,0.5],[1,0.5]];portConstraint=eastwest;top=0;left=0;right=0;bottom=0;fontFamily=Garamond;fontSize=14;" vertex="1" parent="ClxRo2CyHsPCfO-SJl8--1">
          <mxGeometry y="90" width="240" height="40" as="geometry" />
        </mxCell>
        <mxCell id="ClxRo2CyHsPCfO-SJl8--9" value="" style="shape=partialRectangle;connectable=0;fillColor=none;top=0;left=0;bottom=0;right=0;editable=1;overflow=hidden;whiteSpace=wrap;html=1;fontFamily=Garamond;fontSize=14;" vertex="1" parent="ClxRo2CyHsPCfO-SJl8--8">
          <mxGeometry width="30" height="40" as="geometry">
            <mxRectangle width="30" height="40" as="alternateBounds" />
          </mxGeometry>
        </mxCell>
        <mxCell id="ClxRo2CyHsPCfO-SJl8--10" value="updatedAt " style="shape=partialRectangle;connectable=0;fillColor=none;top=0;left=0;bottom=0;right=0;align=left;spacingLeft=6;overflow=hidden;whiteSpace=wrap;html=1;fontFamily=Garamond;fontSize=14;" vertex="1" parent="ClxRo2CyHsPCfO-SJl8--8">
          <mxGeometry x="30" width="130" height="40" as="geometry">
            <mxRectangle width="130" height="40" as="alternateBounds" />
          </mxGeometry>
        </mxCell>
        <mxCell id="ClxRo2CyHsPCfO-SJl8--144" value="DateTime" style="shape=partialRectangle;connectable=0;fillColor=none;top=0;left=0;bottom=0;right=0;align=left;spacingLeft=6;overflow=hidden;whiteSpace=wrap;html=1;fontFamily=Garamond;fontSize=14;" vertex="1" parent="ClxRo2CyHsPCfO-SJl8--8">
          <mxGeometry x="160" width="80" height="40" as="geometry">
            <mxRectangle width="80" height="40" as="alternateBounds" />
          </mxGeometry>
        </mxCell>
        <mxCell id="ClxRo2CyHsPCfO-SJl8--11" value="" style="shape=tableRow;horizontal=0;startSize=0;swimlaneHead=0;swimlaneBody=0;fillColor=none;collapsible=0;dropTarget=0;points=[[0,0.5],[1,0.5]];portConstraint=eastwest;top=0;left=0;right=0;bottom=0;fontFamily=Garamond;fontSize=14;" vertex="1" parent="ClxRo2CyHsPCfO-SJl8--1">
          <mxGeometry y="130" width="240" height="40" as="geometry" />
        </mxCell>
        <mxCell id="ClxRo2CyHsPCfO-SJl8--12" value="" style="shape=partialRectangle;connectable=0;fillColor=none;top=0;left=0;bottom=0;right=0;editable=1;overflow=hidden;whiteSpace=wrap;html=1;fontFamily=Garamond;fontSize=14;" vertex="1" parent="ClxRo2CyHsPCfO-SJl8--11">
          <mxGeometry width="30" height="40" as="geometry">
            <mxRectangle width="30" height="40" as="alternateBounds" />
          </mxGeometry>
        </mxCell>
        <mxCell id="ClxRo2CyHsPCfO-SJl8--13" value="3dSupport " style="shape=partialRectangle;connectable=0;fillColor=none;top=0;left=0;bottom=0;right=0;align=left;spacingLeft=6;overflow=hidden;whiteSpace=wrap;html=1;fontFamily=Garamond;fontSize=14;" vertex="1" parent="ClxRo2CyHsPCfO-SJl8--11">
          <mxGeometry x="30" width="130" height="40" as="geometry">
            <mxRectangle width="130" height="40" as="alternateBounds" />
          </mxGeometry>
        </mxCell>
        <mxCell id="ClxRo2CyHsPCfO-SJl8--145" value="&#xa;bool&#xa;&#xa;" style="shape=partialRectangle;connectable=0;fillColor=none;top=0;left=0;bottom=0;right=0;align=left;spacingLeft=6;overflow=hidden;whiteSpace=wrap;html=1;fontFamily=Garamond;fontSize=14;" vertex="1" parent="ClxRo2CyHsPCfO-SJl8--11">
          <mxGeometry x="160" width="80" height="40" as="geometry">
            <mxRectangle width="80" height="40" as="alternateBounds" />
          </mxGeometry>
        </mxCell>
        <mxCell id="ClxRo2CyHsPCfO-SJl8--92" value="" style="shape=tableRow;horizontal=0;startSize=0;swimlaneHead=0;swimlaneBody=0;fillColor=none;collapsible=0;dropTarget=0;points=[[0,0.5],[1,0.5]];portConstraint=eastwest;top=0;left=0;right=0;bottom=0;fontFamily=Garamond;fontSize=14;" vertex="1" parent="ClxRo2CyHsPCfO-SJl8--1">
          <mxGeometry y="170" width="240" height="30" as="geometry" />
        </mxCell>
        <mxCell id="ClxRo2CyHsPCfO-SJl8--93" value="" style="shape=partialRectangle;connectable=0;fillColor=none;top=0;left=0;bottom=0;right=0;editable=1;overflow=hidden;whiteSpace=wrap;html=1;fontFamily=Garamond;fontSize=14;" vertex="1" parent="ClxRo2CyHsPCfO-SJl8--92">
          <mxGeometry width="30" height="30" as="geometry">
            <mxRectangle width="30" height="30" as="alternateBounds" />
          </mxGeometry>
        </mxCell>
        <mxCell id="ClxRo2CyHsPCfO-SJl8--94" value="seatCapacity" style="shape=partialRectangle;connectable=0;fillColor=none;top=0;left=0;bottom=0;right=0;align=left;spacingLeft=6;overflow=hidden;whiteSpace=wrap;html=1;fontFamily=Garamond;fontSize=14;" vertex="1" parent="ClxRo2CyHsPCfO-SJl8--92">
          <mxGeometry x="30" width="130" height="30" as="geometry">
            <mxRectangle width="130" height="30" as="alternateBounds" />
          </mxGeometry>
        </mxCell>
        <mxCell id="ClxRo2CyHsPCfO-SJl8--146" value="int" style="shape=partialRectangle;connectable=0;fillColor=none;top=0;left=0;bottom=0;right=0;align=left;spacingLeft=6;overflow=hidden;whiteSpace=wrap;html=1;fontFamily=Garamond;fontSize=14;" vertex="1" parent="ClxRo2CyHsPCfO-SJl8--92">
          <mxGeometry x="160" width="80" height="30" as="geometry">
            <mxRectangle width="80" height="30" as="alternateBounds" />
          </mxGeometry>
        </mxCell>
        <mxCell id="ClxRo2CyHsPCfO-SJl8--220" style="edgeStyle=orthogonalEdgeStyle;rounded=0;orthogonalLoop=1;jettySize=auto;html=1;endArrow=ERone;endFill=0;startArrow=ERzeroToMany;startFill=0;fontFamily=Garamond;fontSize=14;" edge="1" parent="1" source="ClxRo2CyHsPCfO-SJl8--14" target="ClxRo2CyHsPCfO-SJl8--1">
          <mxGeometry relative="1" as="geometry" />
        </mxCell>
        <mxCell id="ClxRo2CyHsPCfO-SJl8--221" style="rounded=0;orthogonalLoop=1;jettySize=auto;html=1;elbow=vertical;endArrow=ERone;endFill=0;edgeStyle=orthogonalEdgeStyle;startArrow=ERzeroToMany;startFill=0;fontFamily=Garamond;fontSize=14;" edge="1" parent="1" source="ClxRo2CyHsPCfO-SJl8--14" target="ClxRo2CyHsPCfO-SJl8--27">
          <mxGeometry relative="1" as="geometry">
            <Array as="points">
              <mxPoint x="-630.08" y="460" />
              <mxPoint x="-630.08" y="460" />
            </Array>
          </mxGeometry>
        </mxCell>
        <mxCell id="ClxRo2CyHsPCfO-SJl8--14" value="screening" style="shape=table;startSize=30;container=1;collapsible=1;childLayout=tableLayout;fixedRows=1;rowLines=0;fontStyle=1;align=center;resizeLast=1;html=1;verticalAlign=middle;fontFamily=Garamond;fontSize=14;" vertex="1" parent="1">
          <mxGeometry x="-810.08" y="500" width="270" height="300" as="geometry" />
        </mxCell>
        <mxCell id="ClxRo2CyHsPCfO-SJl8--15" value="" style="shape=tableRow;horizontal=0;startSize=0;swimlaneHead=0;swimlaneBody=0;fillColor=none;collapsible=0;dropTarget=0;points=[[0,0.5],[1,0.5]];portConstraint=eastwest;top=0;left=0;right=0;bottom=1;fontFamily=Garamond;fontSize=14;" vertex="1" parent="ClxRo2CyHsPCfO-SJl8--14">
          <mxGeometry y="30" width="270" height="30" as="geometry" />
        </mxCell>
        <mxCell id="ClxRo2CyHsPCfO-SJl8--16" value="PK" style="shape=partialRectangle;connectable=0;fillColor=none;top=0;left=0;bottom=0;right=0;fontStyle=1;overflow=hidden;whiteSpace=wrap;html=1;fontFamily=Garamond;fontSize=14;" vertex="1" parent="ClxRo2CyHsPCfO-SJl8--15">
          <mxGeometry width="30" height="30" as="geometry">
            <mxRectangle width="30" height="30" as="alternateBounds" />
          </mxGeometry>
        </mxCell>
        <mxCell id="ClxRo2CyHsPCfO-SJl8--17" value="id" style="shape=partialRectangle;connectable=0;fillColor=none;top=0;left=0;bottom=0;right=0;align=left;spacingLeft=6;fontStyle=5;overflow=hidden;whiteSpace=wrap;html=1;fontFamily=Garamond;fontSize=14;" vertex="1" parent="ClxRo2CyHsPCfO-SJl8--15">
          <mxGeometry x="30" width="160" height="30" as="geometry">
            <mxRectangle width="160" height="30" as="alternateBounds" />
          </mxGeometry>
        </mxCell>
        <mxCell id="ClxRo2CyHsPCfO-SJl8--134" value="int" style="shape=partialRectangle;connectable=0;fillColor=none;top=0;left=0;bottom=0;right=0;align=left;spacingLeft=6;fontStyle=5;overflow=hidden;whiteSpace=wrap;html=1;verticalAlign=middle;fontFamily=Garamond;fontSize=14;" vertex="1" parent="ClxRo2CyHsPCfO-SJl8--15">
          <mxGeometry x="190" width="80" height="30" as="geometry">
            <mxRectangle width="80" height="30" as="alternateBounds" />
          </mxGeometry>
        </mxCell>
        <mxCell id="ClxRo2CyHsPCfO-SJl8--18" value="" style="shape=tableRow;horizontal=0;startSize=0;swimlaneHead=0;swimlaneBody=0;fillColor=none;collapsible=0;dropTarget=0;points=[[0,0.5],[1,0.5]];portConstraint=eastwest;top=0;left=0;right=0;bottom=0;fontFamily=Garamond;fontSize=14;" vertex="1" parent="ClxRo2CyHsPCfO-SJl8--14">
          <mxGeometry y="60" width="270" height="30" as="geometry" />
        </mxCell>
        <mxCell id="ClxRo2CyHsPCfO-SJl8--19" value="" style="shape=partialRectangle;connectable=0;fillColor=none;top=0;left=0;bottom=0;right=0;editable=1;overflow=hidden;whiteSpace=wrap;html=1;fontFamily=Garamond;fontSize=14;" vertex="1" parent="ClxRo2CyHsPCfO-SJl8--18">
          <mxGeometry width="30" height="30" as="geometry">
            <mxRectangle width="30" height="30" as="alternateBounds" />
          </mxGeometry>
        </mxCell>
        <mxCell id="ClxRo2CyHsPCfO-SJl8--20" value="createdAt " style="shape=partialRectangle;connectable=0;fillColor=none;top=0;left=0;bottom=0;right=0;align=left;spacingLeft=6;overflow=hidden;whiteSpace=wrap;html=1;fontFamily=Garamond;fontSize=14;" vertex="1" parent="ClxRo2CyHsPCfO-SJl8--18">
          <mxGeometry x="30" width="160" height="30" as="geometry">
            <mxRectangle width="160" height="30" as="alternateBounds" />
          </mxGeometry>
        </mxCell>
        <mxCell id="ClxRo2CyHsPCfO-SJl8--135" value="DateTime" style="shape=partialRectangle;connectable=0;fillColor=none;top=0;left=0;bottom=0;right=0;align=left;spacingLeft=6;overflow=hidden;whiteSpace=wrap;html=1;verticalAlign=middle;fontFamily=Garamond;fontSize=14;" vertex="1" parent="ClxRo2CyHsPCfO-SJl8--18">
          <mxGeometry x="190" width="80" height="30" as="geometry">
            <mxRectangle width="80" height="30" as="alternateBounds" />
          </mxGeometry>
        </mxCell>
        <mxCell id="ClxRo2CyHsPCfO-SJl8--21" value="" style="shape=tableRow;horizontal=0;startSize=0;swimlaneHead=0;swimlaneBody=0;fillColor=none;collapsible=0;dropTarget=0;points=[[0,0.5],[1,0.5]];portConstraint=eastwest;top=0;left=0;right=0;bottom=0;fontFamily=Garamond;fontSize=14;" vertex="1" parent="ClxRo2CyHsPCfO-SJl8--14">
          <mxGeometry y="90" width="270" height="40" as="geometry" />
        </mxCell>
        <mxCell id="ClxRo2CyHsPCfO-SJl8--22" value="" style="shape=partialRectangle;connectable=0;fillColor=none;top=0;left=0;bottom=0;right=0;editable=1;overflow=hidden;whiteSpace=wrap;html=1;fontFamily=Garamond;fontSize=14;" vertex="1" parent="ClxRo2CyHsPCfO-SJl8--21">
          <mxGeometry width="30" height="40" as="geometry">
            <mxRectangle width="30" height="40" as="alternateBounds" />
          </mxGeometry>
        </mxCell>
        <mxCell id="ClxRo2CyHsPCfO-SJl8--23" value="updatedAt " style="shape=partialRectangle;connectable=0;fillColor=none;top=0;left=0;bottom=0;right=0;align=left;spacingLeft=6;overflow=hidden;whiteSpace=wrap;html=1;fontFamily=Garamond;fontSize=14;" vertex="1" parent="ClxRo2CyHsPCfO-SJl8--21">
          <mxGeometry x="30" width="160" height="40" as="geometry">
            <mxRectangle width="160" height="40" as="alternateBounds" />
          </mxGeometry>
        </mxCell>
        <mxCell id="ClxRo2CyHsPCfO-SJl8--136" value="&#xa;DateTime&#xa;&#xa;" style="shape=partialRectangle;connectable=0;fillColor=none;top=0;left=0;bottom=0;right=0;align=left;spacingLeft=6;overflow=hidden;whiteSpace=wrap;html=1;verticalAlign=middle;fontFamily=Garamond;fontSize=14;" vertex="1" parent="ClxRo2CyHsPCfO-SJl8--21">
          <mxGeometry x="190" width="80" height="40" as="geometry">
            <mxRectangle width="80" height="40" as="alternateBounds" />
          </mxGeometry>
        </mxCell>
        <mxCell id="ClxRo2CyHsPCfO-SJl8--24" value="" style="shape=tableRow;horizontal=0;startSize=0;swimlaneHead=0;swimlaneBody=0;fillColor=none;collapsible=0;dropTarget=0;points=[[0,0.5],[1,0.5]];portConstraint=eastwest;top=0;left=0;right=0;bottom=0;fontFamily=Garamond;fontSize=14;" vertex="1" parent="ClxRo2CyHsPCfO-SJl8--14">
          <mxGeometry y="130" width="270" height="40" as="geometry" />
        </mxCell>
        <mxCell id="ClxRo2CyHsPCfO-SJl8--25" value="" style="shape=partialRectangle;connectable=0;fillColor=none;top=0;left=0;bottom=0;right=0;editable=1;overflow=hidden;whiteSpace=wrap;html=1;fontFamily=Garamond;fontSize=14;" vertex="1" parent="ClxRo2CyHsPCfO-SJl8--24">
          <mxGeometry width="30" height="40" as="geometry">
            <mxRectangle width="30" height="40" as="alternateBounds" />
          </mxGeometry>
        </mxCell>
        <mxCell id="ClxRo2CyHsPCfO-SJl8--26" value="startTime " style="shape=partialRectangle;connectable=0;fillColor=none;top=0;left=0;bottom=0;right=0;align=left;spacingLeft=6;overflow=hidden;whiteSpace=wrap;html=1;fontFamily=Garamond;fontSize=14;" vertex="1" parent="ClxRo2CyHsPCfO-SJl8--24">
          <mxGeometry x="30" width="160" height="40" as="geometry">
            <mxRectangle width="160" height="40" as="alternateBounds" />
          </mxGeometry>
        </mxCell>
        <mxCell id="ClxRo2CyHsPCfO-SJl8--137" value="&#xa;DateTime&#xa;&#xa;" style="shape=partialRectangle;connectable=0;fillColor=none;top=0;left=0;bottom=0;right=0;align=left;spacingLeft=6;overflow=hidden;whiteSpace=wrap;html=1;verticalAlign=middle;fontFamily=Garamond;fontSize=14;" vertex="1" parent="ClxRo2CyHsPCfO-SJl8--24">
          <mxGeometry x="190" width="80" height="40" as="geometry">
            <mxRectangle width="80" height="40" as="alternateBounds" />
          </mxGeometry>
        </mxCell>
        <mxCell id="ClxRo2CyHsPCfO-SJl8--98" value="" style="shape=tableRow;horizontal=0;startSize=0;swimlaneHead=0;swimlaneBody=0;fillColor=none;collapsible=0;dropTarget=0;points=[[0,0.5],[1,0.5]];portConstraint=eastwest;top=0;left=0;right=0;bottom=0;fontFamily=Garamond;fontSize=14;" vertex="1" parent="ClxRo2CyHsPCfO-SJl8--14">
          <mxGeometry y="170" width="270" height="40" as="geometry" />
        </mxCell>
        <mxCell id="ClxRo2CyHsPCfO-SJl8--99" value="" style="shape=partialRectangle;connectable=0;fillColor=none;top=0;left=0;bottom=0;right=0;editable=1;overflow=hidden;whiteSpace=wrap;html=1;fontFamily=Garamond;fontSize=14;" vertex="1" parent="ClxRo2CyHsPCfO-SJl8--98">
          <mxGeometry width="30" height="40" as="geometry">
            <mxRectangle width="30" height="40" as="alternateBounds" />
          </mxGeometry>
        </mxCell>
        <mxCell id="ClxRo2CyHsPCfO-SJl8--100" value="endTime " style="shape=partialRectangle;connectable=0;fillColor=none;top=0;left=0;bottom=0;right=0;align=left;spacingLeft=6;overflow=hidden;whiteSpace=wrap;html=1;fontFamily=Garamond;fontSize=14;" vertex="1" parent="ClxRo2CyHsPCfO-SJl8--98">
          <mxGeometry x="30" width="160" height="40" as="geometry">
            <mxRectangle width="160" height="40" as="alternateBounds" />
          </mxGeometry>
        </mxCell>
        <mxCell id="ClxRo2CyHsPCfO-SJl8--138" value="&#xa;DateTime&#xa;&#xa;" style="shape=partialRectangle;connectable=0;fillColor=none;top=0;left=0;bottom=0;right=0;align=left;spacingLeft=6;overflow=hidden;whiteSpace=wrap;html=1;verticalAlign=middle;fontFamily=Garamond;fontSize=14;" vertex="1" parent="ClxRo2CyHsPCfO-SJl8--98">
          <mxGeometry x="190" width="80" height="40" as="geometry">
            <mxRectangle width="80" height="40" as="alternateBounds" />
          </mxGeometry>
        </mxCell>
        <mxCell id="ClxRo2CyHsPCfO-SJl8--117" value="" style="shape=tableRow;horizontal=0;startSize=0;swimlaneHead=0;swimlaneBody=0;fillColor=none;collapsible=0;dropTarget=0;points=[[0,0.5],[1,0.5]];portConstraint=eastwest;top=0;left=0;right=0;bottom=0;fontFamily=Garamond;fontSize=14;" vertex="1" parent="ClxRo2CyHsPCfO-SJl8--14">
          <mxGeometry y="210" width="270" height="30" as="geometry" />
        </mxCell>
        <mxCell id="ClxRo2CyHsPCfO-SJl8--118" value="FK" style="shape=partialRectangle;connectable=0;fillColor=none;top=0;left=0;bottom=0;right=0;editable=1;overflow=hidden;whiteSpace=wrap;html=1;fontFamily=Garamond;fontSize=14;" vertex="1" parent="ClxRo2CyHsPCfO-SJl8--117">
          <mxGeometry width="30" height="30" as="geometry">
            <mxRectangle width="30" height="30" as="alternateBounds" />
          </mxGeometry>
        </mxCell>
        <mxCell id="ClxRo2CyHsPCfO-SJl8--119" value="movieId " style="shape=partialRectangle;connectable=0;fillColor=none;top=0;left=0;bottom=0;right=0;align=left;spacingLeft=6;overflow=hidden;whiteSpace=wrap;html=1;fontFamily=Garamond;fontSize=14;" vertex="1" parent="ClxRo2CyHsPCfO-SJl8--117">
          <mxGeometry x="30" width="160" height="30" as="geometry">
            <mxRectangle width="160" height="30" as="alternateBounds" />
          </mxGeometry>
        </mxCell>
        <mxCell id="ClxRo2CyHsPCfO-SJl8--139" value="int" style="shape=partialRectangle;connectable=0;fillColor=none;top=0;left=0;bottom=0;right=0;align=left;spacingLeft=6;overflow=hidden;whiteSpace=wrap;html=1;verticalAlign=middle;fontFamily=Garamond;fontSize=14;" vertex="1" parent="ClxRo2CyHsPCfO-SJl8--117">
          <mxGeometry x="190" width="80" height="30" as="geometry">
            <mxRectangle width="80" height="30" as="alternateBounds" />
          </mxGeometry>
        </mxCell>
        <mxCell id="ClxRo2CyHsPCfO-SJl8--120" value="" style="shape=tableRow;horizontal=0;startSize=0;swimlaneHead=0;swimlaneBody=0;fillColor=none;collapsible=0;dropTarget=0;points=[[0,0.5],[1,0.5]];portConstraint=eastwest;top=0;left=0;right=0;bottom=0;fontFamily=Garamond;fontSize=14;" vertex="1" parent="ClxRo2CyHsPCfO-SJl8--14">
          <mxGeometry y="240" width="270" height="30" as="geometry" />
        </mxCell>
        <mxCell id="ClxRo2CyHsPCfO-SJl8--121" value="FK" style="shape=partialRectangle;connectable=0;fillColor=none;top=0;left=0;bottom=0;right=0;editable=1;overflow=hidden;whiteSpace=wrap;html=1;fontFamily=Garamond;fontSize=14;" vertex="1" parent="ClxRo2CyHsPCfO-SJl8--120">
          <mxGeometry width="30" height="30" as="geometry">
            <mxRectangle width="30" height="30" as="alternateBounds" />
          </mxGeometry>
        </mxCell>
        <mxCell id="ClxRo2CyHsPCfO-SJl8--122" value="screenId " style="shape=partialRectangle;connectable=0;fillColor=none;top=0;left=0;bottom=0;right=0;align=left;spacingLeft=6;overflow=hidden;whiteSpace=wrap;html=1;fontFamily=Garamond;fontSize=14;" vertex="1" parent="ClxRo2CyHsPCfO-SJl8--120">
          <mxGeometry x="30" width="160" height="30" as="geometry">
            <mxRectangle width="160" height="30" as="alternateBounds" />
          </mxGeometry>
        </mxCell>
        <mxCell id="ClxRo2CyHsPCfO-SJl8--140" value="int" style="shape=partialRectangle;connectable=0;fillColor=none;top=0;left=0;bottom=0;right=0;align=left;spacingLeft=6;overflow=hidden;whiteSpace=wrap;html=1;verticalAlign=middle;fontFamily=Garamond;fontSize=14;" vertex="1" parent="ClxRo2CyHsPCfO-SJl8--120">
          <mxGeometry x="190" width="80" height="30" as="geometry">
            <mxRectangle width="80" height="30" as="alternateBounds" />
          </mxGeometry>
        </mxCell>
        <mxCell id="ClxRo2CyHsPCfO-SJl8--123" value="" style="shape=tableRow;horizontal=0;startSize=0;swimlaneHead=0;swimlaneBody=0;fillColor=none;collapsible=0;dropTarget=0;points=[[0,0.5],[1,0.5]];portConstraint=eastwest;top=0;left=0;right=0;bottom=0;fontFamily=Garamond;fontSize=14;" vertex="1" parent="ClxRo2CyHsPCfO-SJl8--14">
          <mxGeometry y="270" width="270" height="30" as="geometry" />
        </mxCell>
        <mxCell id="ClxRo2CyHsPCfO-SJl8--124" value="" style="shape=partialRectangle;connectable=0;fillColor=none;top=0;left=0;bottom=0;right=0;editable=1;overflow=hidden;whiteSpace=wrap;html=1;fontFamily=Garamond;fontSize=14;" vertex="1" parent="ClxRo2CyHsPCfO-SJl8--123">
          <mxGeometry width="30" height="30" as="geometry">
            <mxRectangle width="30" height="30" as="alternateBounds" />
          </mxGeometry>
        </mxCell>
        <mxCell id="ClxRo2CyHsPCfO-SJl8--125" value="ticketsSold" style="shape=partialRectangle;connectable=0;fillColor=none;top=0;left=0;bottom=0;right=0;align=left;spacingLeft=6;overflow=hidden;whiteSpace=wrap;html=1;fontFamily=Garamond;fontSize=14;" vertex="1" parent="ClxRo2CyHsPCfO-SJl8--123">
          <mxGeometry x="30" width="160" height="30" as="geometry">
            <mxRectangle width="160" height="30" as="alternateBounds" />
          </mxGeometry>
        </mxCell>
        <mxCell id="ClxRo2CyHsPCfO-SJl8--141" value="int" style="shape=partialRectangle;connectable=0;fillColor=none;top=0;left=0;bottom=0;right=0;align=left;spacingLeft=6;overflow=hidden;whiteSpace=wrap;html=1;verticalAlign=middle;fontFamily=Garamond;fontSize=14;" vertex="1" parent="ClxRo2CyHsPCfO-SJl8--123">
          <mxGeometry x="190" width="80" height="30" as="geometry">
            <mxRectangle width="80" height="30" as="alternateBounds" />
          </mxGeometry>
        </mxCell>
        <mxCell id="ClxRo2CyHsPCfO-SJl8--27" value="movie" style="shape=table;startSize=30;container=1;collapsible=1;childLayout=tableLayout;fixedRows=1;rowLines=0;fontStyle=1;align=center;resizeLast=1;html=1;fontFamily=Garamond;fontSize=14;" vertex="1" parent="1">
          <mxGeometry x="-690.08" y="150" width="330" height="240" as="geometry" />
        </mxCell>
        <mxCell id="ClxRo2CyHsPCfO-SJl8--28" value="" style="shape=tableRow;horizontal=0;startSize=0;swimlaneHead=0;swimlaneBody=0;fillColor=none;collapsible=0;dropTarget=0;points=[[0,0.5],[1,0.5]];portConstraint=eastwest;top=0;left=0;right=0;bottom=1;fontFamily=Garamond;fontSize=14;" vertex="1" parent="ClxRo2CyHsPCfO-SJl8--27">
          <mxGeometry y="30" width="330" height="30" as="geometry" />
        </mxCell>
        <mxCell id="ClxRo2CyHsPCfO-SJl8--29" value="PK" style="shape=partialRectangle;connectable=0;fillColor=none;top=0;left=0;bottom=0;right=0;fontStyle=1;overflow=hidden;whiteSpace=wrap;html=1;fontFamily=Garamond;fontSize=14;" vertex="1" parent="ClxRo2CyHsPCfO-SJl8--28">
          <mxGeometry width="30" height="30" as="geometry">
            <mxRectangle width="30" height="30" as="alternateBounds" />
          </mxGeometry>
        </mxCell>
        <mxCell id="ClxRo2CyHsPCfO-SJl8--30" value="id " style="shape=partialRectangle;connectable=0;fillColor=none;top=0;left=0;bottom=0;right=0;align=left;spacingLeft=6;fontStyle=5;overflow=hidden;whiteSpace=wrap;html=1;fontFamily=Garamond;fontSize=14;" vertex="1" parent="ClxRo2CyHsPCfO-SJl8--28">
          <mxGeometry x="30" width="150" height="30" as="geometry">
            <mxRectangle width="150" height="30" as="alternateBounds" />
          </mxGeometry>
        </mxCell>
        <mxCell id="ClxRo2CyHsPCfO-SJl8--155" value="int" style="shape=partialRectangle;connectable=0;fillColor=none;top=0;left=0;bottom=0;right=0;align=left;spacingLeft=6;fontStyle=5;overflow=hidden;whiteSpace=wrap;html=1;fontFamily=Garamond;fontSize=14;" vertex="1" parent="ClxRo2CyHsPCfO-SJl8--28">
          <mxGeometry x="180" width="150" height="30" as="geometry">
            <mxRectangle width="150" height="30" as="alternateBounds" />
          </mxGeometry>
        </mxCell>
        <mxCell id="ClxRo2CyHsPCfO-SJl8--31" value="" style="shape=tableRow;horizontal=0;startSize=0;swimlaneHead=0;swimlaneBody=0;fillColor=none;collapsible=0;dropTarget=0;points=[[0,0.5],[1,0.5]];portConstraint=eastwest;top=0;left=0;right=0;bottom=0;fontFamily=Garamond;fontSize=14;" vertex="1" parent="ClxRo2CyHsPCfO-SJl8--27">
          <mxGeometry y="60" width="330" height="30" as="geometry" />
        </mxCell>
        <mxCell id="ClxRo2CyHsPCfO-SJl8--32" value="" style="shape=partialRectangle;connectable=0;fillColor=none;top=0;left=0;bottom=0;right=0;editable=1;overflow=hidden;whiteSpace=wrap;html=1;fontFamily=Garamond;fontSize=14;" vertex="1" parent="ClxRo2CyHsPCfO-SJl8--31">
          <mxGeometry width="30" height="30" as="geometry">
            <mxRectangle width="30" height="30" as="alternateBounds" />
          </mxGeometry>
        </mxCell>
        <mxCell id="ClxRo2CyHsPCfO-SJl8--33" value="createdAt" style="shape=partialRectangle;connectable=0;fillColor=none;top=0;left=0;bottom=0;right=0;align=left;spacingLeft=6;overflow=hidden;whiteSpace=wrap;html=1;fontFamily=Garamond;fontSize=14;" vertex="1" parent="ClxRo2CyHsPCfO-SJl8--31">
          <mxGeometry x="30" width="150" height="30" as="geometry">
            <mxRectangle width="150" height="30" as="alternateBounds" />
          </mxGeometry>
        </mxCell>
        <mxCell id="ClxRo2CyHsPCfO-SJl8--156" value="DateTime" style="shape=partialRectangle;connectable=0;fillColor=none;top=0;left=0;bottom=0;right=0;align=left;spacingLeft=6;overflow=hidden;whiteSpace=wrap;html=1;fontFamily=Garamond;fontSize=14;" vertex="1" parent="ClxRo2CyHsPCfO-SJl8--31">
          <mxGeometry x="180" width="150" height="30" as="geometry">
            <mxRectangle width="150" height="30" as="alternateBounds" />
          </mxGeometry>
        </mxCell>
        <mxCell id="ClxRo2CyHsPCfO-SJl8--34" value="" style="shape=tableRow;horizontal=0;startSize=0;swimlaneHead=0;swimlaneBody=0;fillColor=none;collapsible=0;dropTarget=0;points=[[0,0.5],[1,0.5]];portConstraint=eastwest;top=0;left=0;right=0;bottom=0;fontFamily=Garamond;fontSize=14;" vertex="1" parent="ClxRo2CyHsPCfO-SJl8--27">
          <mxGeometry y="90" width="330" height="30" as="geometry" />
        </mxCell>
        <mxCell id="ClxRo2CyHsPCfO-SJl8--35" value="" style="shape=partialRectangle;connectable=0;fillColor=none;top=0;left=0;bottom=0;right=0;editable=1;overflow=hidden;whiteSpace=wrap;html=1;fontFamily=Garamond;fontSize=14;" vertex="1" parent="ClxRo2CyHsPCfO-SJl8--34">
          <mxGeometry width="30" height="30" as="geometry">
            <mxRectangle width="30" height="30" as="alternateBounds" />
          </mxGeometry>
        </mxCell>
        <mxCell id="ClxRo2CyHsPCfO-SJl8--36" value="updatedAt" style="shape=partialRectangle;connectable=0;fillColor=none;top=0;left=0;bottom=0;right=0;align=left;spacingLeft=6;overflow=hidden;whiteSpace=wrap;html=1;fontFamily=Garamond;fontSize=14;" vertex="1" parent="ClxRo2CyHsPCfO-SJl8--34">
          <mxGeometry x="30" width="150" height="30" as="geometry">
            <mxRectangle width="150" height="30" as="alternateBounds" />
          </mxGeometry>
        </mxCell>
        <mxCell id="ClxRo2CyHsPCfO-SJl8--157" value="DateTime" style="shape=partialRectangle;connectable=0;fillColor=none;top=0;left=0;bottom=0;right=0;align=left;spacingLeft=6;overflow=hidden;whiteSpace=wrap;html=1;fontFamily=Garamond;fontSize=14;" vertex="1" parent="ClxRo2CyHsPCfO-SJl8--34">
          <mxGeometry x="180" width="150" height="30" as="geometry">
            <mxRectangle width="150" height="30" as="alternateBounds" />
          </mxGeometry>
        </mxCell>
        <mxCell id="ClxRo2CyHsPCfO-SJl8--37" value="" style="shape=tableRow;horizontal=0;startSize=0;swimlaneHead=0;swimlaneBody=0;fillColor=none;collapsible=0;dropTarget=0;points=[[0,0.5],[1,0.5]];portConstraint=eastwest;top=0;left=0;right=0;bottom=0;fontFamily=Garamond;fontSize=14;" vertex="1" parent="ClxRo2CyHsPCfO-SJl8--27">
          <mxGeometry y="120" width="330" height="30" as="geometry" />
        </mxCell>
        <mxCell id="ClxRo2CyHsPCfO-SJl8--38" value="" style="shape=partialRectangle;connectable=0;fillColor=none;top=0;left=0;bottom=0;right=0;editable=1;overflow=hidden;whiteSpace=wrap;html=1;fontFamily=Garamond;fontSize=14;" vertex="1" parent="ClxRo2CyHsPCfO-SJl8--37">
          <mxGeometry width="30" height="30" as="geometry">
            <mxRectangle width="30" height="30" as="alternateBounds" />
          </mxGeometry>
        </mxCell>
        <mxCell id="ClxRo2CyHsPCfO-SJl8--39" value="playtime" style="shape=partialRectangle;connectable=0;fillColor=none;top=0;left=0;bottom=0;right=0;align=left;spacingLeft=6;overflow=hidden;whiteSpace=wrap;html=1;fontFamily=Garamond;fontSize=14;" vertex="1" parent="ClxRo2CyHsPCfO-SJl8--37">
          <mxGeometry x="30" width="150" height="30" as="geometry">
            <mxRectangle width="150" height="30" as="alternateBounds" />
          </mxGeometry>
        </mxCell>
        <mxCell id="ClxRo2CyHsPCfO-SJl8--158" value="int" style="shape=partialRectangle;connectable=0;fillColor=none;top=0;left=0;bottom=0;right=0;align=left;spacingLeft=6;overflow=hidden;whiteSpace=wrap;html=1;fontFamily=Garamond;fontSize=14;" vertex="1" parent="ClxRo2CyHsPCfO-SJl8--37">
          <mxGeometry x="180" width="150" height="30" as="geometry">
            <mxRectangle width="150" height="30" as="alternateBounds" />
          </mxGeometry>
        </mxCell>
        <mxCell id="ClxRo2CyHsPCfO-SJl8--159" value="" style="shape=tableRow;horizontal=0;startSize=0;swimlaneHead=0;swimlaneBody=0;fillColor=none;collapsible=0;dropTarget=0;points=[[0,0.5],[1,0.5]];portConstraint=eastwest;top=0;left=0;right=0;bottom=0;fontFamily=Garamond;fontSize=14;" vertex="1" parent="ClxRo2CyHsPCfO-SJl8--27">
          <mxGeometry y="150" width="330" height="30" as="geometry" />
        </mxCell>
        <mxCell id="ClxRo2CyHsPCfO-SJl8--160" value="" style="shape=partialRectangle;connectable=0;fillColor=none;top=0;left=0;bottom=0;right=0;editable=1;overflow=hidden;whiteSpace=wrap;html=1;fontFamily=Garamond;fontSize=14;" vertex="1" parent="ClxRo2CyHsPCfO-SJl8--159">
          <mxGeometry width="30" height="30" as="geometry">
            <mxRectangle width="30" height="30" as="alternateBounds" />
          </mxGeometry>
        </mxCell>
        <mxCell id="ClxRo2CyHsPCfO-SJl8--161" value="description" style="shape=partialRectangle;connectable=0;fillColor=none;top=0;left=0;bottom=0;right=0;align=left;spacingLeft=6;overflow=hidden;whiteSpace=wrap;html=1;fontFamily=Garamond;fontSize=14;" vertex="1" parent="ClxRo2CyHsPCfO-SJl8--159">
          <mxGeometry x="30" width="150" height="30" as="geometry">
            <mxRectangle width="150" height="30" as="alternateBounds" />
          </mxGeometry>
        </mxCell>
        <mxCell id="ClxRo2CyHsPCfO-SJl8--162" value="string" style="shape=partialRectangle;connectable=0;fillColor=none;top=0;left=0;bottom=0;right=0;align=left;spacingLeft=6;overflow=hidden;whiteSpace=wrap;html=1;fontFamily=Garamond;fontSize=14;" vertex="1" parent="ClxRo2CyHsPCfO-SJl8--159">
          <mxGeometry x="180" width="150" height="30" as="geometry">
            <mxRectangle width="150" height="30" as="alternateBounds" />
          </mxGeometry>
        </mxCell>
        <mxCell id="ClxRo2CyHsPCfO-SJl8--163" value="" style="shape=tableRow;horizontal=0;startSize=0;swimlaneHead=0;swimlaneBody=0;fillColor=none;collapsible=0;dropTarget=0;points=[[0,0.5],[1,0.5]];portConstraint=eastwest;top=0;left=0;right=0;bottom=0;fontFamily=Garamond;fontSize=14;" vertex="1" parent="ClxRo2CyHsPCfO-SJl8--27">
          <mxGeometry y="180" width="330" height="30" as="geometry" />
        </mxCell>
        <mxCell id="ClxRo2CyHsPCfO-SJl8--164" value="" style="shape=partialRectangle;connectable=0;fillColor=none;top=0;left=0;bottom=0;right=0;editable=1;overflow=hidden;whiteSpace=wrap;html=1;fontFamily=Garamond;fontSize=14;" vertex="1" parent="ClxRo2CyHsPCfO-SJl8--163">
          <mxGeometry width="30" height="30" as="geometry">
            <mxRectangle width="30" height="30" as="alternateBounds" />
          </mxGeometry>
        </mxCell>
        <mxCell id="ClxRo2CyHsPCfO-SJl8--165" value="ageRating" style="shape=partialRectangle;connectable=0;fillColor=none;top=0;left=0;bottom=0;right=0;align=left;spacingLeft=6;overflow=hidden;whiteSpace=wrap;html=1;fontFamily=Garamond;fontSize=14;" vertex="1" parent="ClxRo2CyHsPCfO-SJl8--163">
          <mxGeometry x="30" width="150" height="30" as="geometry">
            <mxRectangle width="150" height="30" as="alternateBounds" />
          </mxGeometry>
        </mxCell>
        <mxCell id="ClxRo2CyHsPCfO-SJl8--166" value="int" style="shape=partialRectangle;connectable=0;fillColor=none;top=0;left=0;bottom=0;right=0;align=left;spacingLeft=6;overflow=hidden;whiteSpace=wrap;html=1;fontFamily=Garamond;fontSize=14;" vertex="1" parent="ClxRo2CyHsPCfO-SJl8--163">
          <mxGeometry x="180" width="150" height="30" as="geometry">
            <mxRectangle width="150" height="30" as="alternateBounds" />
          </mxGeometry>
        </mxCell>
        <mxCell id="ClxRo2CyHsPCfO-SJl8--167" value="" style="shape=tableRow;horizontal=0;startSize=0;swimlaneHead=0;swimlaneBody=0;fillColor=none;collapsible=0;dropTarget=0;points=[[0,0.5],[1,0.5]];portConstraint=eastwest;top=0;left=0;right=0;bottom=0;fontFamily=Garamond;fontSize=14;" vertex="1" parent="ClxRo2CyHsPCfO-SJl8--27">
          <mxGeometry y="210" width="330" height="30" as="geometry" />
        </mxCell>
        <mxCell id="ClxRo2CyHsPCfO-SJl8--168" value="" style="shape=partialRectangle;connectable=0;fillColor=none;top=0;left=0;bottom=0;right=0;editable=1;overflow=hidden;whiteSpace=wrap;html=1;fontFamily=Garamond;fontSize=14;" vertex="1" parent="ClxRo2CyHsPCfO-SJl8--167">
          <mxGeometry width="30" height="30" as="geometry">
            <mxRectangle width="30" height="30" as="alternateBounds" />
          </mxGeometry>
        </mxCell>
        <mxCell id="ClxRo2CyHsPCfO-SJl8--169" value="3d" style="shape=partialRectangle;connectable=0;fillColor=none;top=0;left=0;bottom=0;right=0;align=left;spacingLeft=6;overflow=hidden;whiteSpace=wrap;html=1;fontFamily=Garamond;fontSize=14;" vertex="1" parent="ClxRo2CyHsPCfO-SJl8--167">
          <mxGeometry x="30" width="150" height="30" as="geometry">
            <mxRectangle width="150" height="30" as="alternateBounds" />
          </mxGeometry>
        </mxCell>
        <mxCell id="ClxRo2CyHsPCfO-SJl8--170" value="bool" style="shape=partialRectangle;connectable=0;fillColor=none;top=0;left=0;bottom=0;right=0;align=left;spacingLeft=6;overflow=hidden;whiteSpace=wrap;html=1;fontFamily=Garamond;fontSize=14;" vertex="1" parent="ClxRo2CyHsPCfO-SJl8--167">
          <mxGeometry x="180" width="150" height="30" as="geometry">
            <mxRectangle width="150" height="30" as="alternateBounds" />
          </mxGeometry>
        </mxCell>
        <mxCell id="ClxRo2CyHsPCfO-SJl8--53" value="cinemaLocations" style="shape=table;startSize=30;container=1;collapsible=1;childLayout=tableLayout;fixedRows=1;rowLines=0;fontStyle=1;align=center;resizeLast=1;html=1;fontFamily=Garamond;fontSize=14;" vertex="1" parent="1">
          <mxGeometry x="-1155.08" y="220" width="330" height="240" as="geometry" />
        </mxCell>
        <mxCell id="ClxRo2CyHsPCfO-SJl8--54" value="" style="shape=tableRow;horizontal=0;startSize=0;swimlaneHead=0;swimlaneBody=0;fillColor=none;collapsible=0;dropTarget=0;points=[[0,0.5],[1,0.5]];portConstraint=eastwest;top=0;left=0;right=0;bottom=1;fontFamily=Garamond;fontSize=14;" vertex="1" parent="ClxRo2CyHsPCfO-SJl8--53">
          <mxGeometry y="30" width="330" height="30" as="geometry" />
        </mxCell>
        <mxCell id="ClxRo2CyHsPCfO-SJl8--55" value="PK" style="shape=partialRectangle;connectable=0;fillColor=none;top=0;left=0;bottom=0;right=0;fontStyle=1;overflow=hidden;whiteSpace=wrap;html=1;fontFamily=Garamond;fontSize=14;" vertex="1" parent="ClxRo2CyHsPCfO-SJl8--54">
          <mxGeometry width="30" height="30" as="geometry">
            <mxRectangle width="30" height="30" as="alternateBounds" />
          </mxGeometry>
        </mxCell>
        <mxCell id="ClxRo2CyHsPCfO-SJl8--56" value="id " style="shape=partialRectangle;connectable=0;fillColor=none;top=0;left=0;bottom=0;right=0;align=left;spacingLeft=6;fontStyle=5;overflow=hidden;whiteSpace=wrap;html=1;fontFamily=Garamond;fontSize=14;" vertex="1" parent="ClxRo2CyHsPCfO-SJl8--54">
          <mxGeometry x="30" width="150" height="30" as="geometry">
            <mxRectangle width="150" height="30" as="alternateBounds" />
          </mxGeometry>
        </mxCell>
        <mxCell id="ClxRo2CyHsPCfO-SJl8--191" value="int" style="shape=partialRectangle;connectable=0;fillColor=none;top=0;left=0;bottom=0;right=0;align=left;spacingLeft=6;fontStyle=5;overflow=hidden;whiteSpace=wrap;html=1;fontFamily=Garamond;fontSize=14;" vertex="1" parent="ClxRo2CyHsPCfO-SJl8--54">
          <mxGeometry x="180" width="150" height="30" as="geometry">
            <mxRectangle width="150" height="30" as="alternateBounds" />
          </mxGeometry>
        </mxCell>
        <mxCell id="ClxRo2CyHsPCfO-SJl8--57" value="" style="shape=tableRow;horizontal=0;startSize=0;swimlaneHead=0;swimlaneBody=0;fillColor=none;collapsible=0;dropTarget=0;points=[[0,0.5],[1,0.5]];portConstraint=eastwest;top=0;left=0;right=0;bottom=0;fontFamily=Garamond;fontSize=14;" vertex="1" parent="ClxRo2CyHsPCfO-SJl8--53">
          <mxGeometry y="60" width="330" height="30" as="geometry" />
        </mxCell>
        <mxCell id="ClxRo2CyHsPCfO-SJl8--58" value="" style="shape=partialRectangle;connectable=0;fillColor=none;top=0;left=0;bottom=0;right=0;editable=1;overflow=hidden;whiteSpace=wrap;html=1;fontFamily=Garamond;fontSize=14;" vertex="1" parent="ClxRo2CyHsPCfO-SJl8--57">
          <mxGeometry width="30" height="30" as="geometry">
            <mxRectangle width="30" height="30" as="alternateBounds" />
          </mxGeometry>
        </mxCell>
        <mxCell id="ClxRo2CyHsPCfO-SJl8--59" value="createdAt" style="shape=partialRectangle;connectable=0;fillColor=none;top=0;left=0;bottom=0;right=0;align=left;spacingLeft=6;overflow=hidden;whiteSpace=wrap;html=1;fontFamily=Garamond;fontSize=14;" vertex="1" parent="ClxRo2CyHsPCfO-SJl8--57">
          <mxGeometry x="30" width="150" height="30" as="geometry">
            <mxRectangle width="150" height="30" as="alternateBounds" />
          </mxGeometry>
        </mxCell>
        <mxCell id="ClxRo2CyHsPCfO-SJl8--192" value="DateTime" style="shape=partialRectangle;connectable=0;fillColor=none;top=0;left=0;bottom=0;right=0;align=left;spacingLeft=6;overflow=hidden;whiteSpace=wrap;html=1;fontFamily=Garamond;fontSize=14;" vertex="1" parent="ClxRo2CyHsPCfO-SJl8--57">
          <mxGeometry x="180" width="150" height="30" as="geometry">
            <mxRectangle width="150" height="30" as="alternateBounds" />
          </mxGeometry>
        </mxCell>
        <mxCell id="ClxRo2CyHsPCfO-SJl8--60" value="" style="shape=tableRow;horizontal=0;startSize=0;swimlaneHead=0;swimlaneBody=0;fillColor=none;collapsible=0;dropTarget=0;points=[[0,0.5],[1,0.5]];portConstraint=eastwest;top=0;left=0;right=0;bottom=0;fontFamily=Garamond;fontSize=14;" vertex="1" parent="ClxRo2CyHsPCfO-SJl8--53">
          <mxGeometry y="90" width="330" height="30" as="geometry" />
        </mxCell>
        <mxCell id="ClxRo2CyHsPCfO-SJl8--61" value="" style="shape=partialRectangle;connectable=0;fillColor=none;top=0;left=0;bottom=0;right=0;editable=1;overflow=hidden;whiteSpace=wrap;html=1;fontFamily=Garamond;fontSize=14;" vertex="1" parent="ClxRo2CyHsPCfO-SJl8--60">
          <mxGeometry width="30" height="30" as="geometry">
            <mxRectangle width="30" height="30" as="alternateBounds" />
          </mxGeometry>
        </mxCell>
        <mxCell id="ClxRo2CyHsPCfO-SJl8--62" value="updatedAt" style="shape=partialRectangle;connectable=0;fillColor=none;top=0;left=0;bottom=0;right=0;align=left;spacingLeft=6;overflow=hidden;whiteSpace=wrap;html=1;fontFamily=Garamond;fontSize=14;" vertex="1" parent="ClxRo2CyHsPCfO-SJl8--60">
          <mxGeometry x="30" width="150" height="30" as="geometry">
            <mxRectangle width="150" height="30" as="alternateBounds" />
          </mxGeometry>
        </mxCell>
        <mxCell id="ClxRo2CyHsPCfO-SJl8--193" value="DateTime" style="shape=partialRectangle;connectable=0;fillColor=none;top=0;left=0;bottom=0;right=0;align=left;spacingLeft=6;overflow=hidden;whiteSpace=wrap;html=1;fontFamily=Garamond;fontSize=14;" vertex="1" parent="ClxRo2CyHsPCfO-SJl8--60">
          <mxGeometry x="180" width="150" height="30" as="geometry">
            <mxRectangle width="150" height="30" as="alternateBounds" />
          </mxGeometry>
        </mxCell>
        <mxCell id="ClxRo2CyHsPCfO-SJl8--63" value="" style="shape=tableRow;horizontal=0;startSize=0;swimlaneHead=0;swimlaneBody=0;fillColor=none;collapsible=0;dropTarget=0;points=[[0,0.5],[1,0.5]];portConstraint=eastwest;top=0;left=0;right=0;bottom=0;fontFamily=Garamond;fontSize=14;" vertex="1" parent="ClxRo2CyHsPCfO-SJl8--53">
          <mxGeometry y="120" width="330" height="30" as="geometry" />
        </mxCell>
        <mxCell id="ClxRo2CyHsPCfO-SJl8--64" value="" style="shape=partialRectangle;connectable=0;fillColor=none;top=0;left=0;bottom=0;right=0;editable=1;overflow=hidden;whiteSpace=wrap;html=1;fontFamily=Garamond;fontSize=14;" vertex="1" parent="ClxRo2CyHsPCfO-SJl8--63">
          <mxGeometry width="30" height="30" as="geometry">
            <mxRectangle width="30" height="30" as="alternateBounds" />
          </mxGeometry>
        </mxCell>
        <mxCell id="ClxRo2CyHsPCfO-SJl8--65" value="locationName" style="shape=partialRectangle;connectable=0;fillColor=none;top=0;left=0;bottom=0;right=0;align=left;spacingLeft=6;overflow=hidden;whiteSpace=wrap;html=1;fontFamily=Garamond;fontSize=14;" vertex="1" parent="ClxRo2CyHsPCfO-SJl8--63">
          <mxGeometry x="30" width="150" height="30" as="geometry">
            <mxRectangle width="150" height="30" as="alternateBounds" />
          </mxGeometry>
        </mxCell>
        <mxCell id="ClxRo2CyHsPCfO-SJl8--194" value="string" style="shape=partialRectangle;connectable=0;fillColor=none;top=0;left=0;bottom=0;right=0;align=left;spacingLeft=6;overflow=hidden;whiteSpace=wrap;html=1;fontFamily=Garamond;fontSize=14;" vertex="1" parent="ClxRo2CyHsPCfO-SJl8--63">
          <mxGeometry x="180" width="150" height="30" as="geometry">
            <mxRectangle width="150" height="30" as="alternateBounds" />
          </mxGeometry>
        </mxCell>
        <mxCell id="ClxRo2CyHsPCfO-SJl8--195" value="" style="shape=tableRow;horizontal=0;startSize=0;swimlaneHead=0;swimlaneBody=0;fillColor=none;collapsible=0;dropTarget=0;points=[[0,0.5],[1,0.5]];portConstraint=eastwest;top=0;left=0;right=0;bottom=0;fontFamily=Garamond;fontSize=14;" vertex="1" parent="ClxRo2CyHsPCfO-SJl8--53">
          <mxGeometry y="150" width="330" height="30" as="geometry" />
        </mxCell>
        <mxCell id="ClxRo2CyHsPCfO-SJl8--196" value="" style="shape=partialRectangle;connectable=0;fillColor=none;top=0;left=0;bottom=0;right=0;editable=1;overflow=hidden;whiteSpace=wrap;html=1;fontFamily=Garamond;fontSize=14;" vertex="1" parent="ClxRo2CyHsPCfO-SJl8--195">
          <mxGeometry width="30" height="30" as="geometry">
            <mxRectangle width="30" height="30" as="alternateBounds" />
          </mxGeometry>
        </mxCell>
        <mxCell id="ClxRo2CyHsPCfO-SJl8--197" value="address" style="shape=partialRectangle;connectable=0;fillColor=none;top=0;left=0;bottom=0;right=0;align=left;spacingLeft=6;overflow=hidden;whiteSpace=wrap;html=1;fontFamily=Garamond;fontSize=14;" vertex="1" parent="ClxRo2CyHsPCfO-SJl8--195">
          <mxGeometry x="30" width="150" height="30" as="geometry">
            <mxRectangle width="150" height="30" as="alternateBounds" />
          </mxGeometry>
        </mxCell>
        <mxCell id="ClxRo2CyHsPCfO-SJl8--198" value="string" style="shape=partialRectangle;connectable=0;fillColor=none;top=0;left=0;bottom=0;right=0;align=left;spacingLeft=6;overflow=hidden;whiteSpace=wrap;html=1;fontFamily=Garamond;fontSize=14;" vertex="1" parent="ClxRo2CyHsPCfO-SJl8--195">
          <mxGeometry x="180" width="150" height="30" as="geometry">
            <mxRectangle width="150" height="30" as="alternateBounds" />
          </mxGeometry>
        </mxCell>
        <mxCell id="ClxRo2CyHsPCfO-SJl8--199" value="" style="shape=tableRow;horizontal=0;startSize=0;swimlaneHead=0;swimlaneBody=0;fillColor=none;collapsible=0;dropTarget=0;points=[[0,0.5],[1,0.5]];portConstraint=eastwest;top=0;left=0;right=0;bottom=0;fontFamily=Garamond;fontSize=14;" vertex="1" parent="ClxRo2CyHsPCfO-SJl8--53">
          <mxGeometry y="180" width="330" height="30" as="geometry" />
        </mxCell>
        <mxCell id="ClxRo2CyHsPCfO-SJl8--200" value="" style="shape=partialRectangle;connectable=0;fillColor=none;top=0;left=0;bottom=0;right=0;editable=1;overflow=hidden;whiteSpace=wrap;html=1;fontFamily=Garamond;fontSize=14;" vertex="1" parent="ClxRo2CyHsPCfO-SJl8--199">
          <mxGeometry width="30" height="30" as="geometry">
            <mxRectangle width="30" height="30" as="alternateBounds" />
          </mxGeometry>
        </mxCell>
        <mxCell id="ClxRo2CyHsPCfO-SJl8--201" value="phoneNr" style="shape=partialRectangle;connectable=0;fillColor=none;top=0;left=0;bottom=0;right=0;align=left;spacingLeft=6;overflow=hidden;whiteSpace=wrap;html=1;fontFamily=Garamond;fontSize=14;" vertex="1" parent="ClxRo2CyHsPCfO-SJl8--199">
          <mxGeometry x="30" width="150" height="30" as="geometry">
            <mxRectangle width="150" height="30" as="alternateBounds" />
          </mxGeometry>
        </mxCell>
        <mxCell id="ClxRo2CyHsPCfO-SJl8--202" value="int" style="shape=partialRectangle;connectable=0;fillColor=none;top=0;left=0;bottom=0;right=0;align=left;spacingLeft=6;overflow=hidden;whiteSpace=wrap;html=1;fontFamily=Garamond;fontSize=14;" vertex="1" parent="ClxRo2CyHsPCfO-SJl8--199">
          <mxGeometry x="180" width="150" height="30" as="geometry">
            <mxRectangle width="150" height="30" as="alternateBounds" />
          </mxGeometry>
        </mxCell>
        <mxCell id="ClxRo2CyHsPCfO-SJl8--203" value="" style="shape=tableRow;horizontal=0;startSize=0;swimlaneHead=0;swimlaneBody=0;fillColor=none;collapsible=0;dropTarget=0;points=[[0,0.5],[1,0.5]];portConstraint=eastwest;top=0;left=0;right=0;bottom=0;fontFamily=Garamond;fontSize=14;" vertex="1" parent="ClxRo2CyHsPCfO-SJl8--53">
          <mxGeometry y="210" width="330" height="30" as="geometry" />
        </mxCell>
        <mxCell id="ClxRo2CyHsPCfO-SJl8--204" value="" style="shape=partialRectangle;connectable=0;fillColor=none;top=0;left=0;bottom=0;right=0;editable=1;overflow=hidden;whiteSpace=wrap;html=1;fontFamily=Garamond;fontSize=14;" vertex="1" parent="ClxRo2CyHsPCfO-SJl8--203">
          <mxGeometry width="30" height="30" as="geometry">
            <mxRectangle width="30" height="30" as="alternateBounds" />
          </mxGeometry>
        </mxCell>
        <mxCell id="ClxRo2CyHsPCfO-SJl8--205" value="screens" style="shape=partialRectangle;connectable=0;fillColor=none;top=0;left=0;bottom=0;right=0;align=left;spacingLeft=6;overflow=hidden;whiteSpace=wrap;html=1;fontFamily=Garamond;fontSize=14;" vertex="1" parent="ClxRo2CyHsPCfO-SJl8--203">
          <mxGeometry x="30" width="150" height="30" as="geometry">
            <mxRectangle width="150" height="30" as="alternateBounds" />
          </mxGeometry>
        </mxCell>
        <mxCell id="ClxRo2CyHsPCfO-SJl8--206" value="int" style="shape=partialRectangle;connectable=0;fillColor=none;top=0;left=0;bottom=0;right=0;align=left;spacingLeft=6;overflow=hidden;whiteSpace=wrap;html=1;fontFamily=Garamond;fontSize=14;" vertex="1" parent="ClxRo2CyHsPCfO-SJl8--203">
          <mxGeometry x="180" width="150" height="30" as="geometry">
            <mxRectangle width="150" height="30" as="alternateBounds" />
          </mxGeometry>
        </mxCell>
        <mxCell id="ClxRo2CyHsPCfO-SJl8--217" style="edgeStyle=orthogonalEdgeStyle;rounded=0;orthogonalLoop=1;jettySize=auto;html=1;endArrow=ERoneToMany;endFill=0;startArrow=ERone;startFill=0;fontFamily=Garamond;fontSize=14;" edge="1" parent="1" source="ClxRo2CyHsPCfO-SJl8--66" target="ClxRo2CyHsPCfO-SJl8--40">
          <mxGeometry relative="1" as="geometry" />
        </mxCell>
        <mxCell id="ClxRo2CyHsPCfO-SJl8--66" value="customer" style="shape=table;startSize=30;container=1;collapsible=1;childLayout=tableLayout;fixedRows=1;rowLines=0;fontStyle=1;align=center;resizeLast=1;html=1;fontFamily=Garamond;fontSize=14;" vertex="1" parent="1">
          <mxGeometry x="-330.08" y="150" width="290" height="210" as="geometry" />
        </mxCell>
        <mxCell id="ClxRo2CyHsPCfO-SJl8--67" value="" style="shape=tableRow;horizontal=0;startSize=0;swimlaneHead=0;swimlaneBody=0;fillColor=none;collapsible=0;dropTarget=0;points=[[0,0.5],[1,0.5]];portConstraint=eastwest;top=0;left=0;right=0;bottom=1;fontFamily=Garamond;fontSize=14;" vertex="1" parent="ClxRo2CyHsPCfO-SJl8--66">
          <mxGeometry y="30" width="290" height="30" as="geometry" />
        </mxCell>
        <mxCell id="ClxRo2CyHsPCfO-SJl8--68" value="PK" style="shape=partialRectangle;connectable=0;fillColor=none;top=0;left=0;bottom=0;right=0;fontStyle=1;overflow=hidden;whiteSpace=wrap;html=1;fontFamily=Garamond;fontSize=14;" vertex="1" parent="ClxRo2CyHsPCfO-SJl8--67">
          <mxGeometry width="30" height="30" as="geometry">
            <mxRectangle width="30" height="30" as="alternateBounds" />
          </mxGeometry>
        </mxCell>
        <mxCell id="ClxRo2CyHsPCfO-SJl8--69" value="id " style="shape=partialRectangle;connectable=0;fillColor=none;top=0;left=0;bottom=0;right=0;align=left;spacingLeft=6;fontStyle=5;overflow=hidden;whiteSpace=wrap;html=1;fontFamily=Garamond;fontSize=14;" vertex="1" parent="ClxRo2CyHsPCfO-SJl8--67">
          <mxGeometry x="30" width="150" height="30" as="geometry">
            <mxRectangle width="150" height="30" as="alternateBounds" />
          </mxGeometry>
        </mxCell>
        <mxCell id="ClxRo2CyHsPCfO-SJl8--175" value="int" style="shape=partialRectangle;connectable=0;fillColor=none;top=0;left=0;bottom=0;right=0;align=left;spacingLeft=6;fontStyle=5;overflow=hidden;whiteSpace=wrap;html=1;fontFamily=Garamond;fontSize=14;verticalAlign=middle;" vertex="1" parent="ClxRo2CyHsPCfO-SJl8--67">
          <mxGeometry x="180" width="110" height="30" as="geometry">
            <mxRectangle width="110" height="30" as="alternateBounds" />
          </mxGeometry>
        </mxCell>
        <mxCell id="ClxRo2CyHsPCfO-SJl8--70" value="" style="shape=tableRow;horizontal=0;startSize=0;swimlaneHead=0;swimlaneBody=0;fillColor=none;collapsible=0;dropTarget=0;points=[[0,0.5],[1,0.5]];portConstraint=eastwest;top=0;left=0;right=0;bottom=0;fontFamily=Garamond;fontSize=14;" vertex="1" parent="ClxRo2CyHsPCfO-SJl8--66">
          <mxGeometry y="60" width="290" height="30" as="geometry" />
        </mxCell>
        <mxCell id="ClxRo2CyHsPCfO-SJl8--71" value="" style="shape=partialRectangle;connectable=0;fillColor=none;top=0;left=0;bottom=0;right=0;editable=1;overflow=hidden;whiteSpace=wrap;html=1;fontFamily=Garamond;fontSize=14;" vertex="1" parent="ClxRo2CyHsPCfO-SJl8--70">
          <mxGeometry width="30" height="30" as="geometry">
            <mxRectangle width="30" height="30" as="alternateBounds" />
          </mxGeometry>
        </mxCell>
        <mxCell id="ClxRo2CyHsPCfO-SJl8--72" value="createdAt" style="shape=partialRectangle;connectable=0;fillColor=none;top=0;left=0;bottom=0;right=0;align=left;spacingLeft=6;overflow=hidden;whiteSpace=wrap;html=1;fontFamily=Garamond;fontSize=14;" vertex="1" parent="ClxRo2CyHsPCfO-SJl8--70">
          <mxGeometry x="30" width="150" height="30" as="geometry">
            <mxRectangle width="150" height="30" as="alternateBounds" />
          </mxGeometry>
        </mxCell>
        <mxCell id="ClxRo2CyHsPCfO-SJl8--176" value="DateTime" style="shape=partialRectangle;connectable=0;fillColor=none;top=0;left=0;bottom=0;right=0;align=left;spacingLeft=6;overflow=hidden;whiteSpace=wrap;html=1;fontFamily=Garamond;fontSize=14;" vertex="1" parent="ClxRo2CyHsPCfO-SJl8--70">
          <mxGeometry x="180" width="110" height="30" as="geometry">
            <mxRectangle width="110" height="30" as="alternateBounds" />
          </mxGeometry>
        </mxCell>
        <mxCell id="ClxRo2CyHsPCfO-SJl8--73" value="" style="shape=tableRow;horizontal=0;startSize=0;swimlaneHead=0;swimlaneBody=0;fillColor=none;collapsible=0;dropTarget=0;points=[[0,0.5],[1,0.5]];portConstraint=eastwest;top=0;left=0;right=0;bottom=0;fontFamily=Garamond;fontSize=14;" vertex="1" parent="ClxRo2CyHsPCfO-SJl8--66">
          <mxGeometry y="90" width="290" height="30" as="geometry" />
        </mxCell>
        <mxCell id="ClxRo2CyHsPCfO-SJl8--74" value="" style="shape=partialRectangle;connectable=0;fillColor=none;top=0;left=0;bottom=0;right=0;editable=1;overflow=hidden;whiteSpace=wrap;html=1;fontFamily=Garamond;fontSize=14;" vertex="1" parent="ClxRo2CyHsPCfO-SJl8--73">
          <mxGeometry width="30" height="30" as="geometry">
            <mxRectangle width="30" height="30" as="alternateBounds" />
          </mxGeometry>
        </mxCell>
        <mxCell id="ClxRo2CyHsPCfO-SJl8--75" value="updatedAt" style="shape=partialRectangle;connectable=0;fillColor=none;top=0;left=0;bottom=0;right=0;align=left;spacingLeft=6;overflow=hidden;whiteSpace=wrap;html=1;fontFamily=Garamond;fontSize=14;" vertex="1" parent="ClxRo2CyHsPCfO-SJl8--73">
          <mxGeometry x="30" width="150" height="30" as="geometry">
            <mxRectangle width="150" height="30" as="alternateBounds" />
          </mxGeometry>
        </mxCell>
        <mxCell id="ClxRo2CyHsPCfO-SJl8--177" value="DateTime" style="shape=partialRectangle;connectable=0;fillColor=none;top=0;left=0;bottom=0;right=0;align=left;spacingLeft=6;overflow=hidden;whiteSpace=wrap;html=1;fontFamily=Garamond;fontSize=14;" vertex="1" parent="ClxRo2CyHsPCfO-SJl8--73">
          <mxGeometry x="180" width="110" height="30" as="geometry">
            <mxRectangle width="110" height="30" as="alternateBounds" />
          </mxGeometry>
        </mxCell>
        <mxCell id="ClxRo2CyHsPCfO-SJl8--76" value="" style="shape=tableRow;horizontal=0;startSize=0;swimlaneHead=0;swimlaneBody=0;fillColor=none;collapsible=0;dropTarget=0;points=[[0,0.5],[1,0.5]];portConstraint=eastwest;top=0;left=0;right=0;bottom=0;fontFamily=Garamond;fontSize=14;" vertex="1" parent="ClxRo2CyHsPCfO-SJl8--66">
          <mxGeometry y="120" width="290" height="30" as="geometry" />
        </mxCell>
        <mxCell id="ClxRo2CyHsPCfO-SJl8--77" value="" style="shape=partialRectangle;connectable=0;fillColor=none;top=0;left=0;bottom=0;right=0;editable=1;overflow=hidden;whiteSpace=wrap;html=1;fontFamily=Garamond;fontSize=14;" vertex="1" parent="ClxRo2CyHsPCfO-SJl8--76">
          <mxGeometry width="30" height="30" as="geometry">
            <mxRectangle width="30" height="30" as="alternateBounds" />
          </mxGeometry>
        </mxCell>
        <mxCell id="ClxRo2CyHsPCfO-SJl8--78" value="name" style="shape=partialRectangle;connectable=0;fillColor=none;top=0;left=0;bottom=0;right=0;align=left;spacingLeft=6;overflow=hidden;whiteSpace=wrap;html=1;fontFamily=Garamond;fontSize=14;" vertex="1" parent="ClxRo2CyHsPCfO-SJl8--76">
          <mxGeometry x="30" width="150" height="30" as="geometry">
            <mxRectangle width="150" height="30" as="alternateBounds" />
          </mxGeometry>
        </mxCell>
        <mxCell id="ClxRo2CyHsPCfO-SJl8--178" value="string" style="shape=partialRectangle;connectable=0;fillColor=none;top=0;left=0;bottom=0;right=0;align=left;spacingLeft=6;overflow=hidden;whiteSpace=wrap;html=1;fontFamily=Garamond;fontSize=14;" vertex="1" parent="ClxRo2CyHsPCfO-SJl8--76">
          <mxGeometry x="180" width="110" height="30" as="geometry">
            <mxRectangle width="110" height="30" as="alternateBounds" />
          </mxGeometry>
        </mxCell>
        <mxCell id="ClxRo2CyHsPCfO-SJl8--179" value="" style="shape=tableRow;horizontal=0;startSize=0;swimlaneHead=0;swimlaneBody=0;fillColor=none;collapsible=0;dropTarget=0;points=[[0,0.5],[1,0.5]];portConstraint=eastwest;top=0;left=0;right=0;bottom=0;fontFamily=Garamond;fontSize=14;" vertex="1" parent="ClxRo2CyHsPCfO-SJl8--66">
          <mxGeometry y="150" width="290" height="30" as="geometry" />
        </mxCell>
        <mxCell id="ClxRo2CyHsPCfO-SJl8--180" value="" style="shape=partialRectangle;connectable=0;fillColor=none;top=0;left=0;bottom=0;right=0;editable=1;overflow=hidden;whiteSpace=wrap;html=1;fontFamily=Garamond;fontSize=14;" vertex="1" parent="ClxRo2CyHsPCfO-SJl8--179">
          <mxGeometry width="30" height="30" as="geometry">
            <mxRectangle width="30" height="30" as="alternateBounds" />
          </mxGeometry>
        </mxCell>
        <mxCell id="ClxRo2CyHsPCfO-SJl8--181" value="email" style="shape=partialRectangle;connectable=0;fillColor=none;top=0;left=0;bottom=0;right=0;align=left;spacingLeft=6;overflow=hidden;whiteSpace=wrap;html=1;fontFamily=Garamond;fontSize=14;" vertex="1" parent="ClxRo2CyHsPCfO-SJl8--179">
          <mxGeometry x="30" width="150" height="30" as="geometry">
            <mxRectangle width="150" height="30" as="alternateBounds" />
          </mxGeometry>
        </mxCell>
        <mxCell id="ClxRo2CyHsPCfO-SJl8--182" value="string" style="shape=partialRectangle;connectable=0;fillColor=none;top=0;left=0;bottom=0;right=0;align=left;spacingLeft=6;overflow=hidden;whiteSpace=wrap;html=1;fontFamily=Garamond;fontSize=14;" vertex="1" parent="ClxRo2CyHsPCfO-SJl8--179">
          <mxGeometry x="180" width="110" height="30" as="geometry">
            <mxRectangle width="110" height="30" as="alternateBounds" />
          </mxGeometry>
        </mxCell>
        <mxCell id="ClxRo2CyHsPCfO-SJl8--183" value="" style="shape=tableRow;horizontal=0;startSize=0;swimlaneHead=0;swimlaneBody=0;fillColor=none;collapsible=0;dropTarget=0;points=[[0,0.5],[1,0.5]];portConstraint=eastwest;top=0;left=0;right=0;bottom=0;fontFamily=Garamond;fontSize=14;" vertex="1" parent="ClxRo2CyHsPCfO-SJl8--66">
          <mxGeometry y="180" width="290" height="30" as="geometry" />
        </mxCell>
        <mxCell id="ClxRo2CyHsPCfO-SJl8--184" value="" style="shape=partialRectangle;connectable=0;fillColor=none;top=0;left=0;bottom=0;right=0;editable=1;overflow=hidden;whiteSpace=wrap;html=1;fontFamily=Garamond;fontSize=14;" vertex="1" parent="ClxRo2CyHsPCfO-SJl8--183">
          <mxGeometry width="30" height="30" as="geometry">
            <mxRectangle width="30" height="30" as="alternateBounds" />
          </mxGeometry>
        </mxCell>
        <mxCell id="ClxRo2CyHsPCfO-SJl8--185" value="phoneNr" style="shape=partialRectangle;connectable=0;fillColor=none;top=0;left=0;bottom=0;right=0;align=left;spacingLeft=6;overflow=hidden;whiteSpace=wrap;html=1;fontFamily=Garamond;fontSize=14;" vertex="1" parent="ClxRo2CyHsPCfO-SJl8--183">
          <mxGeometry x="30" width="150" height="30" as="geometry">
            <mxRectangle width="150" height="30" as="alternateBounds" />
          </mxGeometry>
        </mxCell>
        <mxCell id="ClxRo2CyHsPCfO-SJl8--186" value="int" style="shape=partialRectangle;connectable=0;fillColor=none;top=0;left=0;bottom=0;right=0;align=left;spacingLeft=6;overflow=hidden;whiteSpace=wrap;html=1;fontFamily=Garamond;fontSize=14;" vertex="1" parent="ClxRo2CyHsPCfO-SJl8--183">
          <mxGeometry x="180" width="110" height="30" as="geometry">
            <mxRectangle width="110" height="30" as="alternateBounds" />
          </mxGeometry>
        </mxCell>
        <mxCell id="ClxRo2CyHsPCfO-SJl8--215" style="edgeStyle=orthogonalEdgeStyle;rounded=0;orthogonalLoop=1;jettySize=auto;html=1;endArrow=ERoneToMany;endFill=0;startArrow=ERoneToMany;startFill=0;fontFamily=Garamond;fontSize=14;" edge="1" parent="1" source="ClxRo2CyHsPCfO-SJl8--79" target="ClxRo2CyHsPCfO-SJl8--53">
          <mxGeometry relative="1" as="geometry">
            <Array as="points">
              <mxPoint x="-750" y="100" />
              <mxPoint x="-750" y="340" />
            </Array>
          </mxGeometry>
        </mxCell>
        <mxCell id="ClxRo2CyHsPCfO-SJl8--79" value="employee" style="shape=table;startSize=30;container=1;collapsible=1;childLayout=tableLayout;fixedRows=1;rowLines=0;fontStyle=1;align=center;resizeLast=1;html=1;fontFamily=Garamond;fontSize=14;" vertex="1" parent="1">
          <mxGeometry x="-1150" y="10" width="330" height="180" as="geometry" />
        </mxCell>
        <mxCell id="ClxRo2CyHsPCfO-SJl8--80" value="" style="shape=tableRow;horizontal=0;startSize=0;swimlaneHead=0;swimlaneBody=0;fillColor=none;collapsible=0;dropTarget=0;points=[[0,0.5],[1,0.5]];portConstraint=eastwest;top=0;left=0;right=0;bottom=1;fontFamily=Garamond;fontSize=14;" vertex="1" parent="ClxRo2CyHsPCfO-SJl8--79">
          <mxGeometry y="30" width="330" height="30" as="geometry" />
        </mxCell>
        <mxCell id="ClxRo2CyHsPCfO-SJl8--81" value="PK" style="shape=partialRectangle;connectable=0;fillColor=none;top=0;left=0;bottom=0;right=0;fontStyle=1;overflow=hidden;whiteSpace=wrap;html=1;fontFamily=Garamond;fontSize=14;" vertex="1" parent="ClxRo2CyHsPCfO-SJl8--80">
          <mxGeometry width="30" height="30" as="geometry">
            <mxRectangle width="30" height="30" as="alternateBounds" />
          </mxGeometry>
        </mxCell>
        <mxCell id="ClxRo2CyHsPCfO-SJl8--82" value="id " style="shape=partialRectangle;connectable=0;fillColor=none;top=0;left=0;bottom=0;right=0;align=left;spacingLeft=6;fontStyle=5;overflow=hidden;whiteSpace=wrap;html=1;fontFamily=Garamond;fontSize=14;" vertex="1" parent="ClxRo2CyHsPCfO-SJl8--80">
          <mxGeometry x="30" width="150" height="30" as="geometry">
            <mxRectangle width="150" height="30" as="alternateBounds" />
          </mxGeometry>
        </mxCell>
        <mxCell id="ClxRo2CyHsPCfO-SJl8--207" value="int" style="shape=partialRectangle;connectable=0;fillColor=none;top=0;left=0;bottom=0;right=0;align=left;spacingLeft=6;fontStyle=5;overflow=hidden;whiteSpace=wrap;html=1;fontFamily=Garamond;fontSize=14;" vertex="1" parent="ClxRo2CyHsPCfO-SJl8--80">
          <mxGeometry x="180" width="150" height="30" as="geometry">
            <mxRectangle width="150" height="30" as="alternateBounds" />
          </mxGeometry>
        </mxCell>
        <mxCell id="ClxRo2CyHsPCfO-SJl8--83" value="" style="shape=tableRow;horizontal=0;startSize=0;swimlaneHead=0;swimlaneBody=0;fillColor=none;collapsible=0;dropTarget=0;points=[[0,0.5],[1,0.5]];portConstraint=eastwest;top=0;left=0;right=0;bottom=0;fontFamily=Garamond;fontSize=14;" vertex="1" parent="ClxRo2CyHsPCfO-SJl8--79">
          <mxGeometry y="60" width="330" height="30" as="geometry" />
        </mxCell>
        <mxCell id="ClxRo2CyHsPCfO-SJl8--84" value="" style="shape=partialRectangle;connectable=0;fillColor=none;top=0;left=0;bottom=0;right=0;editable=1;overflow=hidden;whiteSpace=wrap;html=1;fontFamily=Garamond;fontSize=14;" vertex="1" parent="ClxRo2CyHsPCfO-SJl8--83">
          <mxGeometry width="30" height="30" as="geometry">
            <mxRectangle width="30" height="30" as="alternateBounds" />
          </mxGeometry>
        </mxCell>
        <mxCell id="ClxRo2CyHsPCfO-SJl8--85" value="createdAt" style="shape=partialRectangle;connectable=0;fillColor=none;top=0;left=0;bottom=0;right=0;align=left;spacingLeft=6;overflow=hidden;whiteSpace=wrap;html=1;fontFamily=Garamond;fontSize=14;" vertex="1" parent="ClxRo2CyHsPCfO-SJl8--83">
          <mxGeometry x="30" width="150" height="30" as="geometry">
            <mxRectangle width="150" height="30" as="alternateBounds" />
          </mxGeometry>
        </mxCell>
        <mxCell id="ClxRo2CyHsPCfO-SJl8--208" value="DateTime" style="shape=partialRectangle;connectable=0;fillColor=none;top=0;left=0;bottom=0;right=0;align=left;spacingLeft=6;overflow=hidden;whiteSpace=wrap;html=1;fontFamily=Garamond;fontSize=14;" vertex="1" parent="ClxRo2CyHsPCfO-SJl8--83">
          <mxGeometry x="180" width="150" height="30" as="geometry">
            <mxRectangle width="150" height="30" as="alternateBounds" />
          </mxGeometry>
        </mxCell>
        <mxCell id="ClxRo2CyHsPCfO-SJl8--86" value="" style="shape=tableRow;horizontal=0;startSize=0;swimlaneHead=0;swimlaneBody=0;fillColor=none;collapsible=0;dropTarget=0;points=[[0,0.5],[1,0.5]];portConstraint=eastwest;top=0;left=0;right=0;bottom=0;fontFamily=Garamond;fontSize=14;" vertex="1" parent="ClxRo2CyHsPCfO-SJl8--79">
          <mxGeometry y="90" width="330" height="30" as="geometry" />
        </mxCell>
        <mxCell id="ClxRo2CyHsPCfO-SJl8--87" value="" style="shape=partialRectangle;connectable=0;fillColor=none;top=0;left=0;bottom=0;right=0;editable=1;overflow=hidden;whiteSpace=wrap;html=1;fontFamily=Garamond;fontSize=14;" vertex="1" parent="ClxRo2CyHsPCfO-SJl8--86">
          <mxGeometry width="30" height="30" as="geometry">
            <mxRectangle width="30" height="30" as="alternateBounds" />
          </mxGeometry>
        </mxCell>
        <mxCell id="ClxRo2CyHsPCfO-SJl8--88" value="updatedAt" style="shape=partialRectangle;connectable=0;fillColor=none;top=0;left=0;bottom=0;right=0;align=left;spacingLeft=6;overflow=hidden;whiteSpace=wrap;html=1;fontFamily=Garamond;fontSize=14;" vertex="1" parent="ClxRo2CyHsPCfO-SJl8--86">
          <mxGeometry x="30" width="150" height="30" as="geometry">
            <mxRectangle width="150" height="30" as="alternateBounds" />
          </mxGeometry>
        </mxCell>
        <mxCell id="ClxRo2CyHsPCfO-SJl8--209" value="DateTime" style="shape=partialRectangle;connectable=0;fillColor=none;top=0;left=0;bottom=0;right=0;align=left;spacingLeft=6;overflow=hidden;whiteSpace=wrap;html=1;fontFamily=Garamond;fontSize=14;" vertex="1" parent="ClxRo2CyHsPCfO-SJl8--86">
          <mxGeometry x="180" width="150" height="30" as="geometry">
            <mxRectangle width="150" height="30" as="alternateBounds" />
          </mxGeometry>
        </mxCell>
        <mxCell id="ClxRo2CyHsPCfO-SJl8--89" value="" style="shape=tableRow;horizontal=0;startSize=0;swimlaneHead=0;swimlaneBody=0;fillColor=none;collapsible=0;dropTarget=0;points=[[0,0.5],[1,0.5]];portConstraint=eastwest;top=0;left=0;right=0;bottom=0;fontFamily=Garamond;fontSize=14;" vertex="1" parent="ClxRo2CyHsPCfO-SJl8--79">
          <mxGeometry y="120" width="330" height="30" as="geometry" />
        </mxCell>
        <mxCell id="ClxRo2CyHsPCfO-SJl8--90" value="" style="shape=partialRectangle;connectable=0;fillColor=none;top=0;left=0;bottom=0;right=0;editable=1;overflow=hidden;whiteSpace=wrap;html=1;fontFamily=Garamond;fontSize=14;" vertex="1" parent="ClxRo2CyHsPCfO-SJl8--89">
          <mxGeometry width="30" height="30" as="geometry">
            <mxRectangle width="30" height="30" as="alternateBounds" />
          </mxGeometry>
        </mxCell>
        <mxCell id="ClxRo2CyHsPCfO-SJl8--91" value="phoneNr" style="shape=partialRectangle;connectable=0;fillColor=none;top=0;left=0;bottom=0;right=0;align=left;spacingLeft=6;overflow=hidden;whiteSpace=wrap;html=1;fontFamily=Garamond;fontSize=14;" vertex="1" parent="ClxRo2CyHsPCfO-SJl8--89">
          <mxGeometry x="30" width="150" height="30" as="geometry">
            <mxRectangle width="150" height="30" as="alternateBounds" />
          </mxGeometry>
        </mxCell>
        <mxCell id="ClxRo2CyHsPCfO-SJl8--210" value="int" style="shape=partialRectangle;connectable=0;fillColor=none;top=0;left=0;bottom=0;right=0;align=left;spacingLeft=6;overflow=hidden;whiteSpace=wrap;html=1;fontFamily=Garamond;fontSize=14;" vertex="1" parent="ClxRo2CyHsPCfO-SJl8--89">
          <mxGeometry x="180" width="150" height="30" as="geometry">
            <mxRectangle width="150" height="30" as="alternateBounds" />
          </mxGeometry>
        </mxCell>
        <mxCell id="ClxRo2CyHsPCfO-SJl8--211" value="" style="shape=tableRow;horizontal=0;startSize=0;swimlaneHead=0;swimlaneBody=0;fillColor=none;collapsible=0;dropTarget=0;points=[[0,0.5],[1,0.5]];portConstraint=eastwest;top=0;left=0;right=0;bottom=0;fontFamily=Garamond;fontSize=14;" vertex="1" parent="ClxRo2CyHsPCfO-SJl8--79">
          <mxGeometry y="150" width="330" height="30" as="geometry" />
        </mxCell>
        <mxCell id="ClxRo2CyHsPCfO-SJl8--212" value="" style="shape=partialRectangle;connectable=0;fillColor=none;top=0;left=0;bottom=0;right=0;editable=1;overflow=hidden;whiteSpace=wrap;html=1;fontFamily=Garamond;fontSize=14;" vertex="1" parent="ClxRo2CyHsPCfO-SJl8--211">
          <mxGeometry width="30" height="30" as="geometry">
            <mxRectangle width="30" height="30" as="alternateBounds" />
          </mxGeometry>
        </mxCell>
        <mxCell id="ClxRo2CyHsPCfO-SJl8--213" value="name" style="shape=partialRectangle;connectable=0;fillColor=none;top=0;left=0;bottom=0;right=0;align=left;spacingLeft=6;overflow=hidden;whiteSpace=wrap;html=1;fontFamily=Garamond;fontSize=14;" vertex="1" parent="ClxRo2CyHsPCfO-SJl8--211">
          <mxGeometry x="30" width="150" height="30" as="geometry">
            <mxRectangle width="150" height="30" as="alternateBounds" />
          </mxGeometry>
        </mxCell>
        <mxCell id="ClxRo2CyHsPCfO-SJl8--214" value="string" style="shape=partialRectangle;connectable=0;fillColor=none;top=0;left=0;bottom=0;right=0;align=left;spacingLeft=6;overflow=hidden;whiteSpace=wrap;html=1;fontFamily=Garamond;fontSize=14;" vertex="1" parent="ClxRo2CyHsPCfO-SJl8--211">
          <mxGeometry x="180" width="150" height="30" as="geometry">
            <mxRectangle width="150" height="30" as="alternateBounds" />
          </mxGeometry>
        </mxCell>
        <mxCell id="ClxRo2CyHsPCfO-SJl8--218" style="edgeStyle=orthogonalEdgeStyle;rounded=0;orthogonalLoop=1;jettySize=auto;html=1;endArrow=ERone;endFill=0;startArrow=ERzeroToMany;startFill=0;fontFamily=Garamond;fontSize=14;" edge="1" parent="1" source="ClxRo2CyHsPCfO-SJl8--40" target="ClxRo2CyHsPCfO-SJl8--27">
          <mxGeometry relative="1" as="geometry">
            <Array as="points">
              <mxPoint x="-525.08" y="490" />
            </Array>
          </mxGeometry>
        </mxCell>
        <mxCell id="ClxRo2CyHsPCfO-SJl8--219" style="edgeStyle=orthogonalEdgeStyle;rounded=0;orthogonalLoop=1;jettySize=auto;html=1;endArrow=ERone;endFill=0;startArrow=ERzeroToMany;startFill=0;fontFamily=Garamond;fontSize=14;" edge="1" parent="1" source="ClxRo2CyHsPCfO-SJl8--40" target="ClxRo2CyHsPCfO-SJl8--14">
          <mxGeometry relative="1" as="geometry">
            <Array as="points">
              <mxPoint x="-490" y="525" />
              <mxPoint x="-490" y="525" />
            </Array>
          </mxGeometry>
        </mxCell>
        <mxCell id="ClxRo2CyHsPCfO-SJl8--40" value="ticket" style="shape=table;startSize=30;container=1;collapsible=1;childLayout=tableLayout;fixedRows=1;rowLines=0;fontStyle=1;align=center;resizeLast=1;html=1;fontFamily=Garamond;fontSize=14;" vertex="1" parent="1">
          <mxGeometry x="-315.08" y="420" width="260" height="210" as="geometry" />
        </mxCell>
        <mxCell id="ClxRo2CyHsPCfO-SJl8--41" value="" style="shape=tableRow;horizontal=0;startSize=0;swimlaneHead=0;swimlaneBody=0;fillColor=none;collapsible=0;dropTarget=0;points=[[0,0.5],[1,0.5]];portConstraint=eastwest;top=0;left=0;right=0;bottom=1;fontFamily=Garamond;fontSize=14;" vertex="1" parent="ClxRo2CyHsPCfO-SJl8--40">
          <mxGeometry y="30" width="260" height="30" as="geometry" />
        </mxCell>
        <mxCell id="ClxRo2CyHsPCfO-SJl8--42" value="PK" style="shape=partialRectangle;connectable=0;fillColor=none;top=0;left=0;bottom=0;right=0;fontStyle=1;overflow=hidden;whiteSpace=wrap;html=1;fontFamily=Garamond;fontSize=14;" vertex="1" parent="ClxRo2CyHsPCfO-SJl8--41">
          <mxGeometry width="30" height="30" as="geometry">
            <mxRectangle width="30" height="30" as="alternateBounds" />
          </mxGeometry>
        </mxCell>
        <mxCell id="ClxRo2CyHsPCfO-SJl8--43" value="id" style="shape=partialRectangle;connectable=0;fillColor=none;top=0;left=0;bottom=0;right=0;align=left;spacingLeft=6;fontStyle=5;overflow=hidden;whiteSpace=wrap;html=1;fontFamily=Garamond;fontSize=14;" vertex="1" parent="ClxRo2CyHsPCfO-SJl8--41">
          <mxGeometry x="30" width="140" height="30" as="geometry">
            <mxRectangle width="140" height="30" as="alternateBounds" />
          </mxGeometry>
        </mxCell>
        <mxCell id="ClxRo2CyHsPCfO-SJl8--129" value="int" style="shape=partialRectangle;connectable=0;fillColor=none;top=0;left=0;bottom=0;right=0;align=left;spacingLeft=6;fontStyle=5;overflow=hidden;whiteSpace=wrap;html=1;fontFamily=Garamond;fontSize=14;" vertex="1" parent="ClxRo2CyHsPCfO-SJl8--41">
          <mxGeometry x="170" width="90" height="30" as="geometry">
            <mxRectangle width="90" height="30" as="alternateBounds" />
          </mxGeometry>
        </mxCell>
        <mxCell id="ClxRo2CyHsPCfO-SJl8--44" value="" style="shape=tableRow;horizontal=0;startSize=0;swimlaneHead=0;swimlaneBody=0;fillColor=none;collapsible=0;dropTarget=0;points=[[0,0.5],[1,0.5]];portConstraint=eastwest;top=0;left=0;right=0;bottom=0;fontFamily=Garamond;fontSize=14;" vertex="1" parent="ClxRo2CyHsPCfO-SJl8--40">
          <mxGeometry y="60" width="260" height="30" as="geometry" />
        </mxCell>
        <mxCell id="ClxRo2CyHsPCfO-SJl8--45" value="" style="shape=partialRectangle;connectable=0;fillColor=none;top=0;left=0;bottom=0;right=0;editable=1;overflow=hidden;whiteSpace=wrap;html=1;fontFamily=Garamond;fontSize=14;" vertex="1" parent="ClxRo2CyHsPCfO-SJl8--44">
          <mxGeometry width="30" height="30" as="geometry">
            <mxRectangle width="30" height="30" as="alternateBounds" />
          </mxGeometry>
        </mxCell>
        <mxCell id="ClxRo2CyHsPCfO-SJl8--46" value="createdAt&lt;span style=&quot;white-space: pre; font-size: 14px;&quot;&gt;&#x9;&lt;/span&gt;&lt;span style=&quot;white-space: pre; font-size: 14px;&quot;&gt;&#x9;&lt;/span&gt;&lt;span style=&quot;white-space: pre; font-size: 14px;&quot;&gt;&#x9;&lt;/span&gt;&lt;span style=&quot;white-space: pre; font-size: 14px;&quot;&gt;&#x9;&lt;/span&gt;" style="shape=partialRectangle;connectable=0;fillColor=none;top=0;left=0;bottom=0;right=0;align=left;spacingLeft=6;overflow=hidden;whiteSpace=wrap;html=1;fontFamily=Garamond;fontSize=14;" vertex="1" parent="ClxRo2CyHsPCfO-SJl8--44">
          <mxGeometry x="30" width="140" height="30" as="geometry">
            <mxRectangle width="140" height="30" as="alternateBounds" />
          </mxGeometry>
        </mxCell>
        <mxCell id="ClxRo2CyHsPCfO-SJl8--130" value="DateTime" style="shape=partialRectangle;connectable=0;fillColor=none;top=0;left=0;bottom=0;right=0;align=left;spacingLeft=6;overflow=hidden;whiteSpace=wrap;html=1;fontFamily=Garamond;fontSize=14;" vertex="1" parent="ClxRo2CyHsPCfO-SJl8--44">
          <mxGeometry x="170" width="90" height="30" as="geometry">
            <mxRectangle width="90" height="30" as="alternateBounds" />
          </mxGeometry>
        </mxCell>
        <mxCell id="ClxRo2CyHsPCfO-SJl8--47" value="" style="shape=tableRow;horizontal=0;startSize=0;swimlaneHead=0;swimlaneBody=0;fillColor=none;collapsible=0;dropTarget=0;points=[[0,0.5],[1,0.5]];portConstraint=eastwest;top=0;left=0;right=0;bottom=0;fontFamily=Garamond;fontSize=14;" vertex="1" parent="ClxRo2CyHsPCfO-SJl8--40">
          <mxGeometry y="90" width="260" height="30" as="geometry" />
        </mxCell>
        <mxCell id="ClxRo2CyHsPCfO-SJl8--48" value="" style="shape=partialRectangle;connectable=0;fillColor=none;top=0;left=0;bottom=0;right=0;editable=1;overflow=hidden;whiteSpace=wrap;html=1;fontFamily=Garamond;fontSize=14;" vertex="1" parent="ClxRo2CyHsPCfO-SJl8--47">
          <mxGeometry width="30" height="30" as="geometry">
            <mxRectangle width="30" height="30" as="alternateBounds" />
          </mxGeometry>
        </mxCell>
        <mxCell id="ClxRo2CyHsPCfO-SJl8--49" value="updatedAt" style="shape=partialRectangle;connectable=0;fillColor=none;top=0;left=0;bottom=0;right=0;align=left;spacingLeft=6;overflow=hidden;whiteSpace=wrap;html=1;fontFamily=Garamond;fontSize=14;" vertex="1" parent="ClxRo2CyHsPCfO-SJl8--47">
          <mxGeometry x="30" width="140" height="30" as="geometry">
            <mxRectangle width="140" height="30" as="alternateBounds" />
          </mxGeometry>
        </mxCell>
        <mxCell id="ClxRo2CyHsPCfO-SJl8--131" value="DateTime" style="shape=partialRectangle;connectable=0;fillColor=none;top=0;left=0;bottom=0;right=0;align=left;spacingLeft=6;overflow=hidden;whiteSpace=wrap;html=1;fontFamily=Garamond;fontSize=14;" vertex="1" parent="ClxRo2CyHsPCfO-SJl8--47">
          <mxGeometry x="170" width="90" height="30" as="geometry">
            <mxRectangle width="90" height="30" as="alternateBounds" />
          </mxGeometry>
        </mxCell>
        <mxCell id="ClxRo2CyHsPCfO-SJl8--50" value="" style="shape=tableRow;horizontal=0;startSize=0;swimlaneHead=0;swimlaneBody=0;fillColor=none;collapsible=0;dropTarget=0;points=[[0,0.5],[1,0.5]];portConstraint=eastwest;top=0;left=0;right=0;bottom=0;fontFamily=Garamond;fontSize=14;" vertex="1" parent="ClxRo2CyHsPCfO-SJl8--40">
          <mxGeometry y="120" width="260" height="30" as="geometry" />
        </mxCell>
        <mxCell id="ClxRo2CyHsPCfO-SJl8--51" value="FK" style="shape=partialRectangle;connectable=0;fillColor=none;top=0;left=0;bottom=0;right=0;editable=1;overflow=hidden;whiteSpace=wrap;html=1;fontFamily=Garamond;fontSize=14;" vertex="1" parent="ClxRo2CyHsPCfO-SJl8--50">
          <mxGeometry width="30" height="30" as="geometry">
            <mxRectangle width="30" height="30" as="alternateBounds" />
          </mxGeometry>
        </mxCell>
        <mxCell id="ClxRo2CyHsPCfO-SJl8--52" value="screeningId" style="shape=partialRectangle;connectable=0;fillColor=none;top=0;left=0;bottom=0;right=0;align=left;spacingLeft=6;overflow=hidden;whiteSpace=wrap;html=1;fontFamily=Garamond;fontSize=14;" vertex="1" parent="ClxRo2CyHsPCfO-SJl8--50">
          <mxGeometry x="30" width="140" height="30" as="geometry">
            <mxRectangle width="140" height="30" as="alternateBounds" />
          </mxGeometry>
        </mxCell>
        <mxCell id="ClxRo2CyHsPCfO-SJl8--132" value="int" style="shape=partialRectangle;connectable=0;fillColor=none;top=0;left=0;bottom=0;right=0;align=left;spacingLeft=6;overflow=hidden;whiteSpace=wrap;html=1;fontFamily=Garamond;fontSize=14;" vertex="1" parent="ClxRo2CyHsPCfO-SJl8--50">
          <mxGeometry x="170" width="90" height="30" as="geometry">
            <mxRectangle width="90" height="30" as="alternateBounds" />
          </mxGeometry>
        </mxCell>
        <mxCell id="ClxRo2CyHsPCfO-SJl8--147" value="" style="shape=tableRow;horizontal=0;startSize=0;swimlaneHead=0;swimlaneBody=0;fillColor=none;collapsible=0;dropTarget=0;points=[[0,0.5],[1,0.5]];portConstraint=eastwest;top=0;left=0;right=0;bottom=0;fontFamily=Garamond;fontSize=14;" vertex="1" parent="ClxRo2CyHsPCfO-SJl8--40">
          <mxGeometry y="150" width="260" height="30" as="geometry" />
        </mxCell>
        <mxCell id="ClxRo2CyHsPCfO-SJl8--148" value="FK" style="shape=partialRectangle;connectable=0;fillColor=none;top=0;left=0;bottom=0;right=0;editable=1;overflow=hidden;whiteSpace=wrap;html=1;fontFamily=Garamond;fontSize=14;" vertex="1" parent="ClxRo2CyHsPCfO-SJl8--147">
          <mxGeometry width="30" height="30" as="geometry">
            <mxRectangle width="30" height="30" as="alternateBounds" />
          </mxGeometry>
        </mxCell>
        <mxCell id="ClxRo2CyHsPCfO-SJl8--149" value="movieId" style="shape=partialRectangle;connectable=0;fillColor=none;top=0;left=0;bottom=0;right=0;align=left;spacingLeft=6;overflow=hidden;whiteSpace=wrap;html=1;fontFamily=Garamond;fontSize=14;" vertex="1" parent="ClxRo2CyHsPCfO-SJl8--147">
          <mxGeometry x="30" width="140" height="30" as="geometry">
            <mxRectangle width="140" height="30" as="alternateBounds" />
          </mxGeometry>
        </mxCell>
        <mxCell id="ClxRo2CyHsPCfO-SJl8--150" value="int" style="shape=partialRectangle;connectable=0;fillColor=none;top=0;left=0;bottom=0;right=0;align=left;spacingLeft=6;overflow=hidden;whiteSpace=wrap;html=1;fontFamily=Garamond;fontSize=14;" vertex="1" parent="ClxRo2CyHsPCfO-SJl8--147">
          <mxGeometry x="170" width="90" height="30" as="geometry">
            <mxRectangle width="90" height="30" as="alternateBounds" />
          </mxGeometry>
        </mxCell>
        <mxCell id="ClxRo2CyHsPCfO-SJl8--151" value="" style="shape=tableRow;horizontal=0;startSize=0;swimlaneHead=0;swimlaneBody=0;fillColor=none;collapsible=0;dropTarget=0;points=[[0,0.5],[1,0.5]];portConstraint=eastwest;top=0;left=0;right=0;bottom=0;fontFamily=Garamond;fontSize=14;" vertex="1" parent="ClxRo2CyHsPCfO-SJl8--40">
          <mxGeometry y="180" width="260" height="30" as="geometry" />
        </mxCell>
        <mxCell id="ClxRo2CyHsPCfO-SJl8--152" value="FK" style="shape=partialRectangle;connectable=0;fillColor=none;top=0;left=0;bottom=0;right=0;editable=1;overflow=hidden;whiteSpace=wrap;html=1;fontFamily=Garamond;fontSize=14;" vertex="1" parent="ClxRo2CyHsPCfO-SJl8--151">
          <mxGeometry width="30" height="30" as="geometry">
            <mxRectangle width="30" height="30" as="alternateBounds" />
          </mxGeometry>
        </mxCell>
        <mxCell id="ClxRo2CyHsPCfO-SJl8--153" value="customerId" style="shape=partialRectangle;connectable=0;fillColor=none;top=0;left=0;bottom=0;right=0;align=left;spacingLeft=6;overflow=hidden;whiteSpace=wrap;html=1;fontFamily=Garamond;fontSize=14;" vertex="1" parent="ClxRo2CyHsPCfO-SJl8--151">
          <mxGeometry x="30" width="140" height="30" as="geometry">
            <mxRectangle width="140" height="30" as="alternateBounds" />
          </mxGeometry>
        </mxCell>
        <mxCell id="ClxRo2CyHsPCfO-SJl8--154" value="int" style="shape=partialRectangle;connectable=0;fillColor=none;top=0;left=0;bottom=0;right=0;align=left;spacingLeft=6;overflow=hidden;whiteSpace=wrap;html=1;fontFamily=Garamond;fontSize=14;" vertex="1" parent="ClxRo2CyHsPCfO-SJl8--151">
          <mxGeometry x="170" width="90" height="30" as="geometry">
            <mxRectangle width="90" height="30" as="alternateBounds" />
          </mxGeometry>
        </mxCell>
      </root>
    </mxGraphModel>
  </diagram>
</mxfile>
